<svg xmlns="http://www.w3.org/2000/svg" width="1080.866" height="1185.104" viewBox="0 0 810.65 888.828"><g fill="#eabb1d"><path d="M638.65 1.778c-11.55 2.45-16.5 5.1-53.5 28.8-39.8 25.55-44.5 28.85-44.5 31.2 0 1.05 2.5 7.45 5.6 14.2 11.4 25.1 14.55 32.5 20.85 49.25 5.25 14 11.1 33.5 14.9 49.75.6 2.4 1.2 2.7 8.9 3.8 50.75 7.5 67.8 25.1 98.25 101.55 6.15 15.45 4.25 14.2 23.25 15l16.25.75v-111.55c0-73.05-.35-114.25-1.05-119.4-6.1-44.75-45.2-72.6-88.95-63.35m-149.5 90.4c-9.35 6.2-22.85 14.95-30 19.45-12.55 7.95-32.15 20.65-62.5 40.5-7.95 5.25-18.7 12.1-23.85 15.2-11.25 6.9-10.9 7.85 2.4 6.55 33.1-3.2 117.55-3.9 150.95-1.25 14.2 1.15 14.95.8 14.2-6.65-.75-7.6-6.85-27.05-12.9-41.15-2.75-6.35-7.35-17.35-10.25-24.55-6.45-15.9-8.25-19.45-9.85-19.45-.65.05-8.85 5.1-18.2 11.35"/><path d="M415.15 209.878c-118.4 6.2-122.85 7.9-143.6 54.1-9.75 21.75-22.15 51.45-27.9 66.85-10.35 27.6-10.45 27.7-14.65 14.3-1.6-5.15-3.8-9.9-5.45-11.75l-2.75-3.05-11.3.1c-27.4.2-40.85 5.95-40.85 17.5 0 13.6 8.7 18.3 43.45 23.2 4.9.7 9.05 1.75 9.25 2.35.2.55-3.8 6.6-8.85 13.45-25.35 34.1-24.3 28.35-24.3 132.95l-.05 77.6 2.65 4c5.1 7.7 5.8 7.85 44.35 7.85 38.4 0 38.1.05 43.25-7.7 2.6-3.95 2.8-4.9 3.25-18.7l.5-14.6 46.5-.6c65.95-.85 295.7-.9 300.5-.1l4 .75.5 15.05c.5 14.6.6 15.15 3.3 18.75 5.65 7.4 4.1 7.15 43.15 7.15 52.75 0 48.1 8.1 47.7-83-.4-106.2-.15-104.8-25.35-139.25-4.95-6.7-8.8-12.75-8.6-13.4.25-.75 6.05-2.1 14.45-3.4 30.4-4.7 37.35-9.3 36.15-24.05-.75-9-5.95-12.55-21.55-14.9-28-4.25-34.4-1.15-38.7 18.8-1.55 7.2-5.85-.1-16.05-27.3-9.6-25.7-32.2-74.95-38.55-83.95-8.85-12.65-21.25-19.2-41.45-21.95-46.05-6.2-126.25-9.5-173-7.05m89.5 19.95c90.2 2.55 102.3 5.45 113.65 27.5 6.5 12.65 32.65 76.25 37.3 90.75 1.85 5.7 1.2 6-11.3 5.3-15.05-.85-104-3.3-146.65-4.1-38.2-.65-129.6.75-194.95 3.05-28.15 1-42.8 1.15-43.45.5-2.2-2.2 19.65-59.9 33.65-88.75 12.4-25.55 17.9-28.2 66.25-31.8 43.35-3.2 90.35-4 145.5-2.45m-230.95 135.5c13.9 2.75 20.7 8.7 36.5 32.05 16.35 24.15 14.3 25.25-7.6 4.05-9.35-9.1-22.2-20.85-28.5-26.1-9.85-8.3-14.55-13.9-10.15-12.2.75.25 5.1 1.25 9.75 2.2m379.4-1.55c.3.5-5.6 6-13.2 12.2-7.55 6.2-21.3 18.7-30.5 27.75s-17.1 16.1-17.45 15.7c-2.5-2.45 23.5-39.35 33.85-48.05 3.95-3.35 6.15-4.2 16.35-6.55 9.6-2.2 10.2-2.25 10.95-1.05m-414.2 63.95c61.7 15.8 62.55 16.1 69.85 25.95 9.65 13.05 13.15 22.85 8.95 25.1-2.45 1.35-20.2 1.35-30.55 0-4.4-.55-18.9-2.3-32.2-3.95-30.5-3.7-33.05-4.65-38.05-14.45-7-13.85-7.5-33.9-.95-36.55 3.1-1.25 1.9-1.45 22.95 3.9m462.45-2.3c5.45 5.5.1 33.7-7.85 41.1-5.15 4.8-21.75 7.85-63.8 11.75-39.25 3.7-42.55.75-25.3-22.65 8.55-11.5 7.95-11.25 46.25-21.35 11.85-3.1 26-6.95 31.5-8.45 12.9-3.65 15.85-3.7 19.2-.4m-149.1 19.35c28.35 1.65 30.55 6.1 16.75 33.2-10.75 21.15-15.8 24.35-42.35 26.8-43.9 4-79.7 4.55-119.5 1.7-47.35-3.4-51.85-5.4-62.65-28.3-12.85-27.2-10.4-32 16.95-33.3 21.5-1.05 173.15-1.15 190.8-.1"/><path d="M228.15 261.178c-2.75 1.85-10.4 6.65-17 10.65-13.85 8.45-37.8 25.05-37.1 25.7.25.3 4.45 0 9.3-.65 4.85-.6 14.6-1.5 21.65-1.95 15.45-1.05 13.95.25 22.1-18.45 9.3-21.35 9.3-20.85 1.05-15.3m-107.5 69.25c-9.6 6.35-26.05 17-36.5 23.65-48.3 30.8-59.6 39.2-68.5 51.25-27.55 37.25-17.8 88.25 22 115.2 10.75 7.25 113.3 69.3 114.55 69.3.25 0 .45-27.25.45-60.55 0-79.95 1.55-103.4 8.35-124.75l2.45-7.7-7.15-5.8c-16.7-13.55-22.15-24.6-22.1-44.7 0-11.85.25-13.6 2.75-19.6 4.25-10.35 5.3-10.6-16.3 3.7m686.5 234c-1.85 4.85-1.1 7.2 1.95 6.05 1.1-.4 1.55-1.95 1.55-5.6 0-6.3-1.2-6.45-3.5-.45m-513.5 90.85v21.4l2.75 1.95c2.7 1.9 67.3 41.75 96.65 59.6l14.85 9.05 14.65-15c8-8.25 18-19.3 22.15-24.5s11.05-13.8 15.3-19.1c12-15 36.95-53.05 35.4-54-.7-.45-46.35-.85-101.5-.85H293.65zm257.9-20.5c-7.35 1.45-10 4-18.2 17.6-23.75 39.5-49.35 73-78 102.1-7.15 7.25-11.75 12.7-11.45 13.5.25.75 9.2 6.75 19.9 13.3 48.55 29.85 72.55 44.6 87.35 53.55 8.8 5.35 28.6 17.5 44 27 39.4 24.4 45.65 27 64.7 27 34.45 0 63-25 67.8-59.5 1.05-7.55 1.15-112 .1-124.5l-.6-7.5-42.5-.5c-47.85-.55-46.1-.3-54.2-8.65-7.4-7.7-9-14.4-9.2-39.05l-.1-14.8-33-.15c-18.15-.05-34.6.2-36.6.6"/></g></svg>