<svg xmlns="http://www.w3.org/2000/svg" viewBox="0 0 4284 1544"><path fill="#eabb1d" d="M1114 8c-20.4 3.45-32.6 8.6-54.5 23-6.9 4.55-10.25 6.7-22.7 14.45-6.8 4.2-17 10.75-34.3 22.05-10.1 6.55-20.6 13.35-34.95 22.5-22.4 14.35-28.55 19.35-28.55 23.3 0 1.85 6.6 17.15 16 37.2 2.85 6.05 6.3 13.45 7.65 16.5 1.35 3 3.1 6.85 3.85 8.5.8 1.65 3.5 8.15 6 14.5 2.5 6.3 4.95 12.4 5.5 13.5.5 1.1 2.05 5.05 3.45 8.75s3.65 9.55 4.95 13c4 10.5 9.45 26.1 10.15 29.25.4 1.65 1.8 6.8 3.15 11.5 1.35 4.65 4.45 16.35 6.9 26 5.35 21.2 4.4 20.15 21.05 22.45 54.15 7.45 97.95 33.25 118.85 70.05 1.55 2.75 3.4 5.65 4.05 6.5 1.8 2.15 15.65 29.35 19.45 38.1 1.75 4.05 4.7 10.55 6.5 14.4 1.85 3.85 3.65 8.1 4.05 9.5.35 1.35 1.05 2.95 1.45 3.5.8 1.05 9.5 22.3 13.55 33 4.55 12.1 9.35 22.05 11.35 23.35 1.35.9 8.8 1.65 23.3 2.4 28.4 1.4 30.5 1.45 31.8.15 1.5-1.5 1.4-387.35-.05-396-.6-3.25-1.45-8.4-1.9-11.4-.45-3.05-1.8-8.3-2.95-11.7-1.15-3.45-2.1-6.8-2.1-7.5 0-2.2-10.5-22.05-15.5-29.35-11.6-17-31.05-33.7-48.4-41.55-3.65-1.6-7.25-3.3-8.1-3.75-13.55-7.1-46.25-10-69-6.15M878 147.2c-7.2 4.5-21.1 13.5-41 26.6-22.6 14.85-24.65 16.2-33.8 21.8-3.45 2.15-12.45 7.9-20 12.8s-16.15 10.5-19.2 12.4c-3 1.9-7.05 4.6-9 5.95-6.35 4.4-19.3 12.85-31.25 20.35-6.5 4.1-14.65 9.2-18.15 11.4s-9.45 6.15-13.25 8.8c-5.8 4.05-17.35 11.65-29.85 19.6-1.65 1.05-5.25 3.1-8 4.55-22.65 12.05-24.25 17.25-4.5 14.6 8.1-1.05 44.9-3.35 81.5-5.05 23.8-1.1 126.5-1.15 141 0 6.6.5 17.65 1.35 24.5 1.95 20.25 1.65 39.65 1.75 41.2.25 2-2 1.25-13.45-1.55-23.2-10-34.55-18.3-57.05-28.7-78.05-1.5-3.05-4.9-11.15-7.5-18-2.55-6.85-6.15-15.6-7.95-19.45-1.75-3.85-3.75-8.65-4.4-10.7-2.65-8.1-5.1-9.7-10.1-6.6M713.5 368.05c-7.7.4-18.05 1.2-23 1.8s-17.1 1.55-27 2.15c-56 3.25-69.65 4.35-94 7.5-12.3 1.6-28.2 5.1-30 6.55-.55.45-3.5 1.75-6.55 2.85-21.9 8.2-37.45 26.5-53.6 63.1-3.05 6.85-8 17.9-11.05 24.5s-6.35 13.8-7.3 16-2.45 5.65-3.35 7.65-1.65 3.95-1.65 4.35-1.5 4-3.4 7.95c-1.85 3.95-3.7 8.3-4.1 9.65-.4 1.3-1.3 3.75-2.05 5.4-.7 1.65-2.7 6.35-4.45 10.5-1.75 4.1-3.75 8.85-4.45 10.5-1.8 4.1-10.75 27.7-15.8 41.5-11 30.35-13.6 32.45-19.1 15.4-7.2-22.15-7.5-22.85-11.8-26.15-7.8-6-29.9-5.8-63.85.6-21.95 4.1-29 10.9-29 27.9 0 19.65 10.2 26.85 48 33.65 8 1.45 17.9 3.3 22 4.1 4.15.85 9.5 1.5 11.85 1.5 7.35 0 11.2 5.2 6.65 9-.8.65-3.85 4.45-6.7 8.35-2.85 3.95-10.2 13.9-16.25 22.15-12.7 17.25-12.05 16.25-17.95 27.6-14.2 27.35-15.05 38.5-15.1 199.4v120l2.15 4.7c3.05 6.6 9.5 13.15 15.6 15.95l5.25 2.35H412c65.1 0 61.75.35 69.8-6.9 8.4-7.6 9.55-11.9 10.15-38.3.5-20.5.75-23.45 2.35-25 2.75-2.8 599.25-3.3 602.6-.55 2.05 1.7 2.2 2.75 2.7 25.25.65 29.85 3.1 36.4 16.05 43.05l4.85 2.45h59.5c66.15 0 62.75.35 70.7-6.85 12.4-11.2 12.5-12.4 11.85-125.65-1.15-188.95-1.8-193.55-35.05-238-15.3-20.4-23.25-31.7-23.9-33.7-.85-2.75 2.55-5.3 7.1-5.3 8.15 0 48-7.55 57.7-10.95 16.85-5.85 24.55-16.3 23.35-31.6-1.55-19.7-16.7-27.05-59.75-29.05-30.65-1.45-37.35 2.75-43.2 27.1-4.45 18.6-7.6 16.5-18.95-12.5-1.65-4.15-3.75-9.3-4.75-11.5s-2.85-7.15-4.1-11-2.6-7.45-3-8-1.3-2.8-2-5c-2.45-7.65-28.2-67.55-30.1-70.05-.45-.55-2.35-4.6-4.25-9-20.85-48.35-31.7-65.4-49.55-77.8-20.35-14.15-34.45-17.15-108.6-23.15-11-.9-29.45-2.5-41-3.55-39.95-3.75-160.8-5.4-209-2.9m126 32.95c134.4 3.2 183.4 7.65 206.15 18.6 13.95 6.7 20.75 15.2 32.85 40.9 8.1 17.25 7.7 16.4 11.5 25.5 1.7 4.1 3.75 8.85 4.55 10.5 2.65 5.7 7.65 18.05 11.05 27.5 1.9 5.2 4.1 10.85 4.85 12.5.8 1.65 2.9 6.6 4.6 11 1.75 4.4 5 12.5 7.2 18s5.55 14.25 7.4 19.5c1.9 5.2 4.1 10.95 4.9 12.65.8 1.75 1.75 4.6 2.1 6.3s1 3.35 1.5 3.65c.45.3.85 1.85.85 3.4 0 5.1-1.5 5.3-29.85 4.1-14.1-.6-43.85-1.55-66.15-2.1-22.25-.6-59.4-1.75-82.5-2.6-85.4-3.05-250.4-2.8-344 .6-27.1.95-56.5 1.9-126.25 4.05-39.25 1.2-40.4.9-36.35-9.25.55-1.25 1.7-4.8 2.6-7.8.9-3.05 2.7-8.2 3.95-11.5 6.75-17.8 8.55-22.25 9.95-25 .9-1.65 1.6-3.6 1.6-4.3s1.4-4.55 3.1-8.5c1.75-3.95 3.75-9 4.45-11.2.75-2.2 2.5-7.15 3.95-11s3.3-8.7 4.1-10.8 2.8-6.8 4.5-10.5c1.65-3.7 4.15-9.55 5.45-13 5.25-13.85 20.45-44.6 26.5-53.55 16-23.85 34.75-28.85 125.45-33.6 91.9-4.8 127.35-5.55 190-4.05M471.45 634.05c18.25 4.2 25.15 6.2 29.3 8.65 10.7 6.3 41.7 46.2 54.85 70.65 9.4 17.5 4.85 15.9-17.8-6.15-21.8-21.2-36.05-34.75-40.75-38.75-1.9-1.65-5.5-4.8-8-7.05s-9.7-8.3-16.05-13.4c-12.3-9.95-14.5-12.25-13.6-14.55.7-1.85 1.3-1.85 12.05.6M1133.5 633c.9 1.45-2.15 5-7.9 9.25-2.8 2.05-7.8 6.05-11.1 8.8s-9.15 7.6-12.95 10.75c-15.05 12.35-25.95 22.5-47.9 44.45-12.6 12.55-23.4 22.65-24 22.45-2.25-.7-1.7-4.5 1.25-9.3 1.7-2.7 4.45-7.5 6.1-10.7 12.85-24.25 49.25-65.9 60.5-69.25 18.75-5.5 34.8-8.4 36-6.45m78.8 103.35c10.55 4.55 11.5 19.15 3.05 49.05-6.1 21.55-10.35 26.9-25.35 31.85-10.4 3.45-49.25 9.3-78.5 11.85-7.15.6-13.3 1.3-13.6 1.5-2.15 1.3-51.7 3.4-56.5 2.4-8-1.7-11.8-9.6-7.45-15.5.45-.55 1.3-2.55 1.9-4.4 3-8.95 23.15-35.45 29.5-38.85 7.5-4 21.8-9 30.65-10.75 1.95-.4 8.7-2.2 15-4 6.35-1.8 13.75-3.8 16.5-4.4s8.15-2 12-3.1 9.05-2.55 11.5-3.15c7.25-1.85 29.85-7.85 38-10.05 14.45-3.95 18.7-4.4 23.3-2.45m-817.55 1.15c13.4 3.45 35.15 8.85 40.25 10 3.05.7 8 2 11 2.9 9.5 2.9 15.1 4.4 29 7.95 51.2 13.05 54.7 14.95 69.6 37.65 16.1 24.6 17.15 35.55 3.6 37.6-6.9 1.1-41.1-1.2-69.7-4.6-71.35-8.5-69.25-8.15-79.45-11.8-10.75-3.75-14.95-8.35-20.95-22.7-6.75-16.15-9.3-46.65-4.5-53.15 4.1-5.55 10.3-6.65 21.15-3.85m544.75 34.9c68.1 1 73.95 7.25 50.75 54.3-20.4 41.25-26.65 45.15-79.85 50.25-77.2 7.4-146.35 7.55-228.85.5-58-4.95-65.2-9.95-87.3-60.95-11.9-27.4-7.55-38.45 16.5-42.2 15.35-2.4 212.3-3.5 328.75-1.9m-538.05-317c-3.8 2.4-8.05 5.25-9.45 6.3-1.35 1.05-6.55 4.35-11.5 7.3-21.7 12.9-52.2 33.05-66.2 43.7-3.05 2.3-6.05 4.4-6.65 4.65-.85.3-.85.7 0 1.6.85.95 2.95.85 9.5-.35 4.6-.85 15.1-2 23.35-2.6 33.75-2.35 41-3.1 43.35-4.65 2.5-1.6 7.65-12.05 13.75-27.6 1.95-5.1 4-9.7 4.45-10.3.45-.55 2.25-4.6 4-9 1.75-4.35 3.55-8.4 4.05-8.9 1.35-1.4 1.1-4.55-.4-4.55-.7 0-4.4 2-8.25 4.4M225.4 568.8c-18.3 12.2-22.8 15.1-39.4 25.75-4.1 2.65-13.35 8.6-20.5 13.25-15.35 10-16.6 10.8-31.5 20.25-13.95 8.85-38.95 25.15-56.3 36.75-73.5 49-93.1 129.2-48.15 196.7C40 877.15 60 896.55 76.2 906.7c2.45 1.55 6.6 4.15 9.25 5.8 16.95 10.6 49.6 30.55 58.05 35.5 1.65.95 10.2 6.15 19 11.55s18.95 11.5 22.5 13.65c6.4 3.8 27.7 16.85 41.5 25.35 3.85 2.4 11.75 7.05 17.5 10.3 5.8 3.3 12.45 7.2 14.8 8.65 5.85 3.7 9.95 5.15 11.1 3.95.6-.6.6-20.9-.05-54.45-1.8-91.4.25-186.05 4.65-218.5 2.4-17.6 8.3-43.5 11.65-51 2.95-6.5 2.5-7.75-4.3-12.6-20.55-14.7-29.95-26.2-40.2-49-8.65-19.3-6.75-51.5 4.35-74.3 4.15-8.55 1.9-7.75-20.6 7.2m289.3 531.35c-1.65 1.3-1.75 3.75-1.5 36.75l.3 35.35 3.65 3.1c3.9 3.35 22.65 15.2 45.35 28.6 7.7 4.55 16.95 10.2 20.5 12.55 3.6 2.35 8.55 5.45 11 6.9 2.5 1.45 10.6 6.45 18 11.05 7.45 4.65 15.75 9.65 18.45 11.1 2.7 1.5 6.1 3.45 7.5 4.4s7.05 4.6 12.55 8.05c5.5 3.5 11.6 7.35 13.5 8.6 9.15 5.85 33.2 20.45 39.25 23.8l6.75 3.75 4.4-3.85c4.6-4.05 24.7-24.8 40.55-41.8 5.1-5.5 14.5-16.6 20.9-24.65 36.1-45.4 40.9-51.65 49.9-65.35 4.65-7.15 15.05-22.85 23.05-34.85 11.5-17.25 14.25-22 13.1-22.7-.8-.55-48.4-.95-112-.95-60.8 0-138.2-.3-172-.6-51.35-.55-61.7-.4-63.2.75m449.8-.15c-17.4 1.45-25.4 7.35-35.1 26-4.35 8.35-17.2 29.15-27.45 44.5-4.4 6.6-9.25 13.95-10.75 16.35-5.1 8.15-26 36.65-31.7 43.2-2.2 2.55-8.25 9.95-13.5 16.45-5.2 6.5-12.65 15.5-16.5 19.95-3.85 4.5-9.25 10.85-12 14.1-6.7 7.95-17.4 19.15-32.75 34.4-8.2 8.1-12.75 13.35-12.75 14.7 0 2.3 1.05 3 30.3 20.95l26 16c20.75 12.85 30.7 19 36.7 22.6 3.6 2.1 12.35 7.5 19.5 11.9s16.4 10.05 20.5 12.55c4.15 2.45 10.2 6.2 13.5 8.35 3.3 2.1 9.15 5.7 13 7.95 3.85 2.3 8.35 5 10 6.05 3.25 2.1 6.5 4.05 16.25 9.8 6.5 3.85 27.7 16.75 38.8 23.7 50.95 31.7 76.8 47.6 84.45 51.75 3.05 1.65 6.4 3.55 7.5 4.2 45.15 27.75 119.7 11.8 149.2-31.95 1.5-2.2 3.45-4.9 4.4-6 5.5-6.5 15.85-30.6 18.7-43.5 2.2-10.05 3.1-228.75.9-233l-1.25-2.5-70.5-.55c-83.5-.65-81.5-.35-95.5-14.4-13.7-13.75-17.3-29.5-15.95-70.2.5-16.75.4-22.3-.5-22.85-1.65-1-102.2-1.45-113.5-.5"/><path fill="#fff" d="M2368.5 581.5c-9.6 4.5-21.5 17.35-21.5 23.1 0 1.2-.65 2.7-1.5 3.4-2 1.65-2 14.5 0 18 .8 1.35 1.45 3.85 1.45 5.55.15 11.8 20.95 26.15 36.5 25.2 15.45-.95 33.55-14.1 33.55-24.45 0-1.15.65-3.35 1.5-4.95 2-3.8 2-16.3.05-18.9-.85-1.1-1.5-3.1-1.5-4.55-.1-6.95-14.75-21.05-25.15-24.2-8.6-2.6-15.2-2.1-23.4 1.8m1439.5-.4c-2.45.55-6.75.8-9.5.55-2.8-.25-6.8.15-9.1.95-2.3.75-6.8 1.85-10 2.35-8.25 1.35-17.65 3.6-19.95 4.75-1.05.55-5.1 2.05-8.95 3.3-6.15 2.05-11.65 4.65-21.3 10-1.5.85-5.2 3.2-8.3 5.25s-5.95 3.75-6.4 3.75c-3.3 0-38.5 35.65-38.5 38.95 0 .65-2 3.2-4.5 5.7-2.45 2.5-4.5 5.1-4.5 5.7 0 .65-1.55 3.35-3.5 6.1-1.9 2.7-3.5 5.85-3.5 7.05s-1.55 4.35-3.5 7.05c-1.9 2.75-3.5 5.6-3.5 6.45 0 .8-.9 2.85-2 4.5s-2 3.65-2 4.5c0 .8-.75 2.85-1.6 4.5-1.85 3.45-4.65 12.8-4.9 16.5-.15 1.35-.95 4.95-1.85 7.95-.9 2.95-1.65 7.7-1.65 10.55 0 2.8-.55 5.65-1.25 6.35-2.2 2.2-1.7 60.95.55 64.15.9 1.35 1.7 4.1 1.7 6.1 0 2.05.9 5.65 2 8.05 1.05 2.4 1.95 6.05 2 8.15 0 2.1.55 4.8 1.2 6s2.45 5.7 3.95 10 3.6 9.25 4.7 11c1.05 1.75 2.25 4.3 2.65 5.6.4 1.35 2.8 5.4 5.3 9 2.45 3.65 5 8.2 5.6 10.2.6 1.95 3.2 6 5.7 9 11.55 13.55 15.85 18.85 18.15 22.45 2.65 4.2 6.7 8.1 11.35 11 1.6 1 4.1 2.9 5.55 4.25 3.25 2.9 12.05 8.6 16.8 10.8 1.9.85 4.8 2.6 6.5 3.9 1.65 1.25 4.2 2.6 5.55 3 1.4.4 4.05 1.6 5.9 2.65 7.25 4.15 28.55 10.2 39.6 11.25 3.3.35 7.8 1.25 10 2.05 5.85 2.15 46.05 2.2 51.15.05 2-.85 5.05-1.5 6.8-1.5 5.95 0 25.7-4.8 33.05-8.05 1.1-.45 3.8-1.35 6-1.9 2.2-.6 5.8-2.15 8-3.5s6.7-3.85 10-5.6c22.6-11.9 49.1-38.7 62.35-63.05 5.75-10.55 7.55-8.4-18.35-21.95-37.75-19.75-36.9-19.5-41.15-12.7-14.05 22.45-27.85 36.3-44.85 45-8 4.15-18.65 7.75-22.7 7.75-1.4 0-4.45.65-6.8 1.5-8.15 2.9-32.9 1.2-45.65-3.1-21.7-7.35-34.05-15-48.5-30.2-11.3-11.85-28.85-41.4-28.85-48.5 0-1.35-.65-4.05-1.5-6.05-.8-1.95-1.5-5.05-1.5-6.85s-.7-5.1-1.45-7.3c-1.75-4.85-2.1-39.75-.45-46 .6-2.2 1.45-6.25 1.95-9 1.95-10.65 5-20.55 7.8-25 .65-1.1 2.9-5.2 4.95-9.15 6.35-12.25 15.4-24.3 27.85-37.1 7.6-7.85 29.5-19.8 41.35-22.6 14.85-3.5 17.7-3.85 30.5-3.35 19.7.8 32.55 3.95 44 10.95 15.05 9.2 25.15 17.95 34.05 29.5 12.55 16.3 9.6 16.1 37.85 2.25 12.35-6.05 22.9-11 23.45-11 .6 0 1.4-.6 1.85-1.35s2.25-2.1 4.05-3.05c1.85-.95 3.5-2.7 3.85-4.15.65-2.5.5-2.75-7.15-13.45-5.95-8.3-31.75-34.05-38.9-38.85-4.1-2.75-9-6.15-10.9-7.6-8-6.1-35.7-18.45-44.85-20-2.05-.35-4.95-1.3-6.5-2.1s-4.5-1.45-6.6-1.45c-2.05 0-5.25-.6-7.05-1.35-4.15-1.75-35.4-2.9-41.65-1.55m-508.5 6.55c-2.2.85-6.25 1.9-9 2.35-7.9 1.3-24.45 8.7-29 12.95-2.2 2.05-5.8 5.05-8.05 6.65-8.4 6.05-21.45 24-21.45 29.55 0 1.3-.9 3.7-2 5.35s-2 4.6-2 6.6c0 2.35-.7 4.25-2.1 5.5-2.85 2.55-2.55 27.25.35 31.35 1.15 1.65 1.75 4.35 1.75 8.05 0 3.05.6 6.45 1.35 7.55.75 1.05 3.45 6.55 5.95 12.2 3.7 8.15 6.2 12.05 12.05 18.6 9.95 11.2 10.4 12.05 7.25 14.9-4.1 3.75-8.85 7.2-11.55 8.4-1.4.6-5.9 4.35-10.05 8.3-4.1 3.95-10.75 10.35-14.75 14.15-4 3.85-7.25 7.7-7.25 8.5 0 .85-1.55 3.6-3.5 6.1-1.9 2.5-3.5 5.1-3.5 5.7s-1.55 3.3-3.5 6.05c-1.9 2.7-3.5 5.9-3.5 7.15 0 1.2-1.35 5.05-3 8.55-2.25 4.75-3 7.8-3 12.1 0 3.15-.7 7.5-1.6 9.65-3.25 8.15.45 38.45 6.15 50.1 1.2 2.45 2.5 5.95 2.9 7.7s2.05 4.9 3.7 7c1.7 2.1 3.85 5.35 4.85 7.3 6.9 13.35 48.45 41.95 61 42 .85.05 3.3.7 5.5 1.45 2.2.8 5.85 1.5 8.15 1.5 2.25.05 5.4.7 7 1.55 4.75 2.5 37.15 2.1 44.6-.5 3.15-1.1 7.25-2 9.1-2 1.9 0 5.4-.9 7.8-2 2.4-1.05 5.35-1.95 6.6-2 5.4-.05 24.4-9.2 36.25-17.5 11.85-8.25 15.2-10.85 15.65-12.1 1.5-3.8 5.1-1.2 20.35 14.55l15.5 16.05h35.2c41.65 0 41.65 0 32.2-10.25-1.65-1.8-5.8-7.25-9.2-12.1-6.9-9.85-10.05-13.7-19.95-24.3-3.7-4-6.75-7.75-6.75-8.35 0-.65-2.4-3.7-5.35-6.8-3-3.15-6.2-7.3-7.15-9.2-1-1.95-4.2-6.25-7.15-9.6-6.4-7.3-6.5-8.35-1.45-16.1 2.15-3.3 4.2-7.1 4.65-8.4.4-1.35 2.5-5.35 4.7-8.9 2.15-3.6 5.25-9.2 6.85-12.5 1.65-3.3 4.75-9.4 6.95-13.5 3.95-7.45 6.25-12.9 10.2-24.5 1.1-3.3 3.05-8.25 4.25-11 1.25-2.75 2.8-6.8 3.45-9s2.3-6.3 3.65-9.1c5.5-11.3 2.95-12.4-28.8-12.4-34 .05-34.6.25-36.85 11-.65 3-2.25 7.8-3.55 10.6s-2.4 5.55-2.4 6.1c0 4.05-20.5 40.45-22.3 39.65-1.35-.6-10.9-11.3-22.65-25.35-4.35-5.25-12-14.2-17-20-10.2-11.85-10.05-11.45-6.3-13.35 11.05-5.75 44.25-39.8 44.25-45.4 0-.5 1.8-3.7 4-7.15 2.2-3.4 4-6.95 4-7.9 0-1.5.55-3.55 4.1-14.7 3.25-10 2-28.8-2.75-41.75-.75-2.1-1.35-4.5-1.35-5.35 0-3.7-8.85-16-18.5-25.8-11.25-11.3-23.1-18.45-34.25-20.55-2.85-.55-6-1.4-6.95-1.9-5.9-3.1-45.75-4.25-52.8-1.5m31.95 53.3c.35.5 3.05 1.65 6.05 2.5 8.9 2.6 14.5 10.65 16.65 24.05 2.85 17.75-7.55 34.35-31.8 50.8-5.15 3.5-8 2.5-14.05-5-2.1-2.55-5.45-6.5-7.4-8.75-4.15-4.6-8.9-13.5-8.9-16.55 0-1.15-.7-3.15-1.6-4.5-2.25-3.45-2.3-19.4-.05-22.6.9-1.3 1.65-3.35 1.65-4.6 0-3.55 8-10.4 15.75-13.5 7-2.75 22.4-4 23.7-1.85m-23.6 161.3c3.85 4 8.45 9.05 10.15 11.25 1.75 2.2 6.75 7.7 11.1 12.2s7.9 8.6 7.9 9.05c0 .5 1.4 2.3 3.1 4.05 1.7 1.7 5.65 6.25 8.75 10 3.1 3.8 8.9 10.75 12.9 15.5 8.6 10.15 8.6 10.2 2.5 15.85-19 17.7-47.8 26.6-65.95 20.45-2.55-.9-5.65-1.6-6.9-1.6-6.55 0-22.95-13.25-27.55-22.35-6.85-13.4-6.4-43.8.7-49.7.9-.7 2.3-2.7 3.15-4.4 1.9-3.65 12.9-16.7 15.2-17.95.85-.45 2.6-1.8 3.85-2.9 9.25-8.4 12.55-8.3 21.1.55M1547.5 593.95c-32.25.6-30.9.35-32.9 6.85-.8 2.6-2.6 7.6-4 11.15-1.45 3.55-2.6 7.2-2.6 8.1 0 .95-.9 2.8-2 4.2s-2 3.4-2 4.4-.9 3.2-2 4.85-2 4.1-2 5.5c0 1.35-1.35 4.5-3 7-1.65 2.45-3 5.25-3 6.15 0 .95-1.55 5.45-3.5 10-1.9 4.55-3.5 9.1-3.5 10.15 0 1-1.55 5.05-3.45 9-1.85 3.95-3.7 8.65-4.05 10.4s-1.25 3.7-2.05 4.35-1.45 1.7-1.45 2.3c0 .65-.65 2.35-1.4 3.85-.8 1.45-1.7 4.1-2.1 5.8-.4 1.75-2 5.65-3.6 8.7-1.6 3-2.9 6.45-2.9 7.65s-1.35 4.8-3 8.05-3 6.85-3 8c0 1.2-1.55 4.6-3.5 7.6-1.9 3-3.5 6.3-3.5 7.35s-.85 3.3-1.9 5.05c-1.05 1.7-2.2 4.65-2.6 6.6-.45 1.9-1.6 4.55-2.65 5.9-1 1.3-1.85 3.5-1.85 4.9 0 1.35-.95 4.55-2.1 7.1-4.35 9.5-4.85 10.7-5.95 15.1-.65 2.45-2.25 6.6-3.55 9.2s-2.4 5.45-2.4 6.3-1.1 3.8-2.5 6.5c-1.35 2.7-2.5 5.85-2.5 7s-1.35 4.75-3 8-3 6.8-3 7.85c0 2.6-3.6 10.6-5.5 12.15-.85.7-1.5 2.9-1.5 5.1 0 2.7-1.05 5.5-3.5 9.35-1.9 3-3.5 6.6-3.5 8.05 0 1.4-1.55 5.7-3.5 9.5-1.9 3.8-3.5 7.9-3.5 9.1 0 1.9-2.6 8.45-8.95 22.4-3.05 6.75-7.4 19-9.9 27.85-2.5 8.95-3.8 8.65 34.4 8.65 35.5 0 34.05.25 35.15-6.4.3-2 2.1-6.6 3.95-10.3 1.85-3.65 3.35-7.9 3.35-9.45 0-1.5.45-3 1-3.35 1.8-1.1 6.95-13.55 10-24 .45-1.65 2.05-6.15 3.5-10 1.5-3.85 3.45-9.1 4.4-11.65.95-2.6 2.8-6.7 4.1-9.15l2.35-4.45 8.1-.6c13.35-1.05 130.15-.75 133 .35 1.4.5 2.55 1.55 2.55 2.25s.9 2.95 2 5 2 4.4 2 5.2c0 1.55 1.75 6.05 5.1 13.05 1.05 2.2 1.9 4.65 1.9 5.5 0 .8.9 2.85 2 4.5s2 3.9 2 5.05.4 2.5.95 3c.8.8 3.4 7.55 10.7 27.95.8 2.2 2.35 5.85 3.4 8.05 1.1 2.25 1.95 4.6 1.95 5.25 0 3.85 3.55 4.25 37.6 3.95l32.9-.25.3-3.55c.2-2.55-.25-4.05-1.75-5.4-1.15-1.05-2.05-2.65-2.05-3.6 0-1-.65-3.05-1.4-4.6-.8-1.6-1.85-4.65-2.4-6.85-1.4-5.55-6.6-20.3-10.25-28.85-1.7-3.95-3.45-8.05-3.9-9.15s-1.8-5.1-3-8.9c-1.15-3.8-3.25-9.25-4.6-12.1s-2.45-5.8-2.45-6.6c0-1.3-2.6-8.4-5.65-15.55-.75-1.75-1.35-3.8-1.35-4.55 0-.8-1.55-4.55-3.5-8.35-1.9-3.85-3.5-8.05-3.5-9.35 0-1.35-1.3-4.7-2.85-7.5s-3.45-6.9-4.15-9.1-2.5-6.5-4-9.5c-1.5-3.05-3.05-7.4-3.45-9.7s-1.35-4.7-2.15-5.35c-.75-.65-1.4-1.9-1.4-2.75 0-1.95-4.8-14.05-6.65-16.65-.75-1.1-1.35-2.9-1.35-4-.05-1.15-1.8-5.65-4-10.05s-3.95-8.55-4-9.25c0-.7-1.8-5.65-4-11s-4-10.45-4-11.25c0-.85-.9-2.85-2-4.5s-2-3.8-2-4.8-.85-3.45-1.9-5.5c-4.25-8.2-7.1-14.8-7.1-16.5 0-1-.85-3.45-1.85-5.5-1.05-2.05-2.2-5.45-2.6-7.65-.4-2.15-2-6.55-3.65-9.7-1.6-3.2-2.9-6.85-2.9-8.15s-.9-3.2-2-4.2-2-2.45-2-3.2-1.2-3.7-2.65-6.6c-1.45-2.85-3.65-8.15-4.95-11.7-1.25-3.6-3.9-10.8-5.9-16-2-5.25-4.5-12-5.6-15-2.75-7.6-6.65-11.05-12.15-10.8-2.35.15-17.3.5-33.25.75m8.05 88.8c1.25 7.5 10.4 33.2 14.9 41.85.85 1.6 1.55 3.75 1.55 4.8s.95 3.95 2.1 6.5c2.95 6.45 4.25 9.7 6.6 16.6 1.15 3.3 2.6 7.55 3.25 9.5.7 1.9 2.8 6.65 4.65 10.5 1.9 3.85 3.45 7.7 3.4 8.6 0 .85.9 2.4 2 3.4s2 2.7 2 3.75.6 3.15 1.35 4.6c7.15 13.8 9.4 13.15-43.9 13.15-50.45 0-50.1.05-46.95-6 .85-1.6 1.5-3.75 1.5-4.85 0-1.05.7-2.45 1.5-3.15.85-.7 1.5-2.45 1.5-3.85.05-1.45.95-4.6 2-7 1.1-2.4 2-4.9 2-5.5 0-.65 1.15-3.4 2.5-6.15s2.45-5.8 2.45-6.75c.05-.95.95-3.45 2.05-5.5s2-4.4 2.05-5.25c0-.8.9-3.3 1.95-5.5s1.95-4.6 1.95-5.35c.05-.75.7-2.75 1.5-4.5 4.2-9.2 10.55-26.45 10.55-28.6 0-.85.9-3.25 2-5.3s2-4.55 2-5.5.9-3.1 2-4.75 2-3.65 2-4.45c0-1.75 4.95-9.05 6.1-9.05.45 0 1.1 1.7 1.45 3.75m1220.3-88.1c-5.5 3.5-5.85 5.75-5.85 37.2 0 34.9-1 32.3 13.15 33.65l10.35 1-.25 6c-.65 15.55-4.25 22.1-17.8 32.5-9.9 7.6-10.45 8.35-10.45 13.95 0 2.5-.4 5.9-.85 7.55-3.2 11.2 7.65 12.25 26.85 2.6 1.9-1 5.15-2.6 7.15-3.55 4.8-2.3 27.35-23.75 29.95-28.45 6.9-12.45 7.65-14.15 10-21.75 1.15-3.75 2.9-8.2 3.85-9.85 1.55-2.7 1.75-6.1 1.65-32.2-.15-40.65 1.7-38.75-38.6-39.7-23.85-.6-26.75-.5-29.15 1.05M1891.7 681.5c-1.55.8-5.1 1.75-7.85 2.1-13.9 1.85-38.15 16.25-49.9 29.7-5.95 6.75-6.95 5.3-6.95-10.25 0-17.6 3-16.2-34.5-15.85l-29.7.3-1.9 2.35c-2.45 3.05-2.55 262.9-.1 265.35 2.25 2.25 61.85 2.4 64.3.2 1.85-1.65 1.9-4.8 1.9-83.1 0-56.1.35-82.05 1.05-83.45.6-1.1 1.75-4.5 2.55-7.6s2.35-7.05 3.45-8.8c1.05-1.75 1.95-3.85 1.95-4.7 0-5.4 23.5-23.75 30.4-23.75 1.45 0 4.3-.7 6.25-1.5 4.85-2.05 20.25-2.05 22.9-.05 1.1.85 2.9 1.5 4.05 1.5 11.7.2 28.05 20.15 29.95 36.55.4 3.3 1.05 6.45 1.45 7s.95 38.1 1.25 83.45l.5 82.45 2.25 1.8c3.6 2.95 62.05 2.75 65-.2 2-2 2.05-2.8 1.6-90.75-.4-91.25-.95-106.4-3.9-111.95-.95-1.75-1.7-4.35-1.7-5.75s-.9-4.25-2-6.3-2-4.4-2-5.25c0-.8-.9-2.85-2-4.5s-2-3.7-2-4.6c0-4.6-17.7-24.8-26-29.75-13.4-8-25.7-13.15-31.45-13.15-1.7 0-4.85-.7-7.05-1.45-5.6-2.05-27.95-2.1-31.8-.05m290.8.9c-18.4 3.95-50.9 23.15-54 31.85-.8 2.2-4.2 4.1-6.1 3.35-1.1-.4-1.4-3.15-1.4-12.95 0-18.3 1.95-17.05-27.65-17.45-28-.4-35.75.2-38.45 2.9-1.85 1.85-1.9 5.25-1.9 132.85V953.9l2.2 1.55c2.45 1.7 60.95 2.4 63.5.75 2.95-1.85 3.15-7.6 3.2-86.1.05-52.75.4-80.8 1.05-82.05.6-1.05 1.05-3.25 1.05-4.85 0-3.65 2.45-9.7 5.6-13.9 1.3-1.75 2.4-3.7 2.4-4.3 0-2.25 11.55-13.25 16.5-15.7 2.75-1.4 5.7-3.1 6.5-3.8 6-5.05 28.6-7 37-3.2 1.95.85 4.65 1.8 6 2.1 7 1.5 22.95 16.8 23 22.1 0 .55.75 2.35 1.6 4 4.4 8.25 4.7 14.8 5.35 101.8.5 72.05.75 82.9 2.05 83.7 3.4 2.15 62.8 1.2 65.05-1.05 4-4 1.95-192.1-2.25-203.95-.85-2.5-2.35-7.2-3.3-10.5-7.55-25.9-35-52.25-59-56.6-3.3-.6-8.2-1.7-10.85-2.5-7.3-2.1-25.05-1.6-37.15 1m387-1.7c-1.65.2-4.4 1.05-6.15 1.85s-5 1.45-7.25 1.45-5.8.9-7.85 2-4.35 2-5.15 2c-1.95 0-17.5 8.5-23.1 12.6-13.05 9.65-17.65 13.55-23.85 20.4-3.75 4.1-7.4 8.6-8.1 10-.7 1.35-2.3 3.6-3.55 5-2.75 3-13.5 23.45-13.5 25.65 0 .85-.85 3.2-1.9 5.2-2.2 4.25-4.8 13.75-5.5 20.15-.25 2.45-1.25 5.95-2.1 7.75-2.9 5.75-3.4 46-.65 53.6 1.2 3.4 1.85 7 1.5 8.6-.35 1.7.45 5.55 2.05 9.95 1.45 4 2.6 8.1 2.6 9.15s.9 3.4 2 5.2 2 3.9 2 4.75c0 .8 1.35 4.2 3 7.5s3 6.5 3 7.05c0 1.1 4.65 7.8 11.7 16.85 4.8 6.2 16.8 18.25 19.65 19.75 1.2.65 4.65 3.05 7.65 5.35 5.45 4.2 14.65 9.5 16.4 9.5.5 0 3.4 1.2 6.5 2.65 5.75 2.7 14.5 5 24.15 6.35 3.1.4 6.55 1.25 7.7 1.85 4.1 2.2 46.3 1.5 53-.85 3.1-1.1 6.95-2 8.5-2s4.6-.9 6.75-2 4.95-2 6.2-2.05c11.5-.25 47-26.55 60.4-44.65 7.1-9.55 7-10.4-1.35-14.35-20.8-9.9-21-10-34.7-18.3-9.75-5.95-8.85-6.1-18.65 3.85-7.6 7.8-14.4 13.05-25.4 19.6-7.3 4.35-33.95 6.25-46.5 3.35-13.35-3.1-25.75-10.85-34.2-21.45-5.15-6.4-12.8-20.25-12.8-23.1 0-1.1-.9-3.75-2-5.9-2.3-4.5-2.6-10.25-.7-11.85.95-.75 29.2-1.15 95.5-1.25 88.05-.15 94.25-.25 95.7-1.9 1.95-2.15 1.7-42.35-.3-53-3.75-19.65-6.05-27.55-9.65-33-1.25-1.95-3.4-5.75-4.7-8.5-9.25-19-27.8-40.2-39.3-44.8-1.1-.45-4.35-2.35-7.25-4.3-2.9-1.9-6.95-4.15-9.05-5-2.05-.8-5.1-2.1-6.75-2.85-7.5-3.4-16.35-6.05-25-7.55-4.95-.85-43.2-1.1-49-.3m41.35 60.3c2.4 1.1 5 2 5.85 2 .8 0 2.85 1.05 4.6 2.4 1.75 1.3 4.15 2.65 5.3 3 3.7 1.1 21.4 20.8 21.4 23.8 0 .75 1.55 5.15 3.5 9.8 3.2 7.75 3.35 8.55 1.95 10.7l-1.5 2.3-43.2.2c-79.2.3-79.6.3-76.95-6.2.65-1.65 1.7-4.45 2.35-6.25.6-1.8 2.4-5.95 4-9.25 1.55-3.3 2.85-6.45 2.85-7.05 0-2.75 14.85-16.65 22-20.55 12.8-6.95 37.65-9.5 47.85-4.9m331.65-60.15c-1.65.45-4 1.35-5.2 2-1.2.6-3.25 1.15-4.6 1.15-3 0-14.85 5.3-16.65 7.45-.7.85-2.1 1.55-3.1 1.55-3.5 0-25.2 19.85-30.05 27.5-3.55 5.55-9.95 24.65-9.7 28.8.1 1.75-.35 6.35-1 10.2-2.25 13.05 3.95 34.8 12.75 44.75 1.55 1.8 4.3 4.95 6.05 6.95 4.15 4.9 10.65 9.6 20.5 14.8 4.4 2.3 8.45 4.5 9 4.85 2.35 1.5 20.25 7.6 30 10.25 3.85 1.05 11.2 3 16.4 4.35 39.05 10.35 52.8 28.5 36.95 48.7-3.05 3.9-12.55 9.85-15.7 9.85-1.05 0-3.5.65-5.5 1.5-9.2 3.85-30.8.8-46.3-6.55-6.65-3.15-20.35-15.4-20.35-18.2 0-2.35-5.3-8.75-7.25-8.75-1.1 0-9.35 3.6-18.3 7.95-8.9 4.4-17.4 8.25-18.8 8.6s-3.1 1.3-3.75 2.05c-.6.75-1.6 1.4-2.1 1.4-8.4 0-10.6 8.35-3.9 14.4 1.15 1.05 2.1 2.25 2.1 2.65 0 3 23.5 29.95 26.15 29.95.35 0 2.6 1.65 5 3.65 4.6 3.85 19 11.05 27.35 13.65 11.15 3.45 16.35 4.7 19.7 4.7 1.95 0 5.15.65 7.15 1.5 4.4 1.85 31.55 2.15 34.85.4 1.15-.6 5.25-1.5 9.15-2s8.9-1.55 11.1-2.3c2.25-.8 6.75-2.2 10.05-3.15 8.45-2.5 20.15-8.05 23.35-11.1 1.45-1.4 4.8-3.9 7.4-5.55 5.3-3.3 18.95-18.3 21.85-24 1-2 2.3-3.9 2.8-4.25.5-.3 1.25-2.45 1.65-4.8.4-2.3 1.25-5.1 1.95-6.25 3.75-6 4.15-40.95.6-48.95-1.15-2.65-2.1-5.8-2.1-7.05s-.6-2.75-1.4-3.4c-.75-.65-1.6-2.4-1.9-3.95-1.35-6.75-8.85-15.65-18.55-21.95-3.1-2.05-5.85-3.95-6.15-4.3-3.45-4.25-36.95-17.9-43.9-17.9-.9 0-2.55-.6-3.65-1.3-1.05-.75-6-2.55-10.95-4.1-4.95-1.5-10.35-3.2-12-3.75-1.65-.6-5.1-1.4-7.65-1.9-2.55-.45-5.45-1.25-6.5-1.8-1-.6-4.65-2.25-8-3.7-21.2-9.1-19.6-32.8 2.65-40.6 8.5-2.95 24.75-3.3 29.7-.6 1.75.95 4.1 1.75 5.2 1.75 5.05 0 16.6 9.9 23.4 20.05 4.65 6.9 8.85 8.9 11.65 5.5.7-.85 2.05-1.55 2.9-1.55.9 0 7.75-3.3 15.15-7.3 7.45-4 14.35-7.65 15.45-8.05 3.4-1.3 10.45-6.1 11.05-7.55 2-5-15-27.75-24.05-32.15-2.45-1.15-4.45-2.5-4.45-2.95 0-2.85-31.85-18-37.85-18-2.05 0-4.8-.75-6.15-1.7-2.7-1.9-47.2-3.05-53.5-1.45m1168.8-.15c-1.15.25-2.7 1.05-3.35 1.85s-2.6 1.45-4.35 1.45c-1.7 0-4.8.9-6.85 2s-4.45 2-5.35 2c-.85 0-2.8.65-4.25 1.45-4.7 2.5-15.8 7.55-16.65 7.55-.45 0-2.65 1.5-4.9 3.35-2.25 1.8-6.2 4.55-8.75 6-5.35 3.15-22.15 20.45-24.85 25.65-1 1.9-3.2 4.8-4.9 6.45-1.7 1.6-3.1 3.35-3.1 3.9s-2.2 5.5-4.9 11.05-5.4 11.9-6 14.1c-.65 2.2-1.8 4.85-2.6 5.95-.85 1.05-1.5 2.85-1.5 3.95 0 1.05-.85 3.8-1.9 6.05-1.05 2.2-2.15 6.05-2.4 8.55-.25 2.45-1 8.55-1.65 13.55-2.35 17.6 1.35 50.05 7.1 61.7.45.95.85 2.45.85 3.35 0 4.45 12.2 28.65 21.1 42 3.5 5.2 20.45 21.35 26.3 25 2.55 1.6 6.55 4.3 8.9 5.95 7.55 5.55 25.55 13.4 30.8 13.5 1.3 0 3.55.65 4.9 1.45 1.4.8 3.95 1.45 5.7 1.45 1.8.05 5.5.95 8.3 2.05 6.55 2.6 42.7 2.95 47 .5 1.4-.8 3.65-1.45 5-1.5 7.5-.1 34.8-9.2 40.25-13.4 1.8-1.35 4.45-2.9 5.85-3.45 6.95-2.65 24.65-18.05 32.4-28.25 2.2-2.9 4.95-6.2 6.15-7.35 2.6-2.55 14.35-23.35 14.4-25.55 0-.8.65-2.35 1.5-3.45.8-1.05 1.45-2.65 1.45-3.55 0-.85.85-3.2 1.85-5.25 1.05-2 2.2-5.55 2.55-7.95.4-2.35 1.45-5.4 2.3-6.75 2.15-3.3 2.55-51.15.5-60.55-2.75-12.55-6.2-23.5-8.1-25.9-.45-.6-1.2-2.7-1.6-4.6-.4-1.95-1.25-4.4-1.95-5.5-.65-1.1-1.55-3.3-1.95-4.95-.4-1.6-1.6-4.15-2.65-5.65-1.1-1.5-1.95-3.3-2-4.05-.1-6.25-21.3-29.95-34.95-39.05-4.1-2.75-8.4-5.8-9.5-6.8-1.1-.95-3.1-2.1-4.5-2.5-1.35-.45-3.6-1.5-5-2.4-3.2-2.15-12.45-5.75-17-6.65-1.9-.35-4.15-1.25-5-1.95-.8-.7-3.5-1.5-6-1.85-2.45-.3-6.95-1.25-9.95-2.1-5.2-1.45-50.15-2.15-56.75-.85m45.2 60.25c11.55 3.8 14.7 5.15 19.85 8.5 7.9 5.2 17.9 15.4 21.6 22.05 1.85 3.3 4.9 8.3 6.75 11.15 2.35 3.6 3.55 6.8 3.95 10.5.3 2.95 1.2 6.85 2 8.65 1.2 2.6 1.4 6.85 1 21.5-.25 10-.5 19.3-.55 20.7-.05 3.8-9.45 24.95-13.45 30.3-4.4 5.95-13.95 15.65-18 18.3-9.6 6.35-11.35 7.3-15.65 8.4-2.45.65-6.7 1.8-9.35 2.6-7.85 2.25-20.8 1.55-29.65-1.65-12.65-4.55-16.85-6.45-21.85-9.9-15.1-10.4-22.75-22.95-29.8-49.05-2.5-9.2-2.4-34.4.1-42.1 5.7-17.25 12.1-31.2 17-37 4.45-5.35 16.3-14.85 20.8-16.8 2.5-1.05 4.85-2.4 5.2-3s2.1-1.1 3.85-1.15c1.75 0 4.8-.9 6.7-1.95 5-2.75 21.15-2.75 29.5-.05M2352.3 688c-4.4 1.8-4.3-.6-4.3 134.95 0 128.7 0 130.05 2 132.05 2.75 2.75 61.7 3.15 64.45.45 2.25-2.3 2.4-262.9.15-266-1.6-2.15-57.5-3.45-62.3-1.45m703.2 411.95-3 .55.25 80c.3 91.9-1 82.5 11.25 82.5 11.9 0 10.9 3.7 11.2-42l.3-39.5 4.4-6c8.75-11.95 25.55-16.4 36.35-9.55 9.1 5.75 9.75 9.7 9.75 57 0 32.8.2 37.95 1.55 39.1 2.15 1.75 17.9 1.9 19.65.15 1.9-1.9 1.85-78.15-.05-86.7-5.3-23.5-16.1-31.9-40.15-31.35-14.65.4-15.7.7-25.4 8.2-6.3 4.95-6.6 3.85-6.6-26.05 0-19.4-.3-25.45-1.25-25.75-2.35-.75-15.25-1.15-18.25-.6m290.5-.25c-7.45.75-6.9-5.45-7.1 79.15-.05 42.15-.15 77.95-.15 79.55 0 1.7.75 3.5 1.8 4.25 2.5 1.85 16.8 1.85 18.3 0 1.1-1.3 1.85-161.3.75-162.4-.75-.75-8.5-1.05-13.6-.55m-653.5 1.55c-.2.7-.55 12.6-.7 26.45-.35 28.3-.55 29.2-5.95 24.45-14.5-12.7-39.6-11.85-55.3 1.95-3.95 3.5-10.55 12.8-10.6 15 0 .75-1.1 3.2-2.5 5.4-1.35 2.2-2.45 4.95-2.45 6.15 0 1.15-.65 3.7-1.5 5.7-2.4 5.8-2.05 33.85.5 39.15 1.05 2.2 1.95 5.4 1.95 7.1.05 1.75.9 4.2 1.9 5.5 1 1.35 2.1 3.5 2.45 4.9 1.55 6.3 17.25 19.85 24.8 21.45 15.6 3.3 32.35 1.35 39.85-4.6 5.45-4.35 6.5-4.35 7.35 0 .7 3.35 14.45 5.3 19.7 2.8l2.5-1.2.25-79.9c.2-63.3 0-80.1-1-80.7-2.15-1.4-20.75-1-21.25.4m-16.1 65.3c7.1 4.35 13.05 13.4 14.6 22.15 1.5 8.3 1 36.35-.6 38.4-.65.75-1.65 3-2.3 4.95-3.85 12-23.1 19.55-34.85 13.7-5.55-2.75-12.75-11.05-13.75-15.75-.4-1.95-1.35-4.7-2.15-6.2-4.5-8.9-1.2-45.05 4.5-48.75.45-.3 1.55-1.9 2.4-3.55 4.4-8.55 21.95-11.25 32.15-4.95m1452.8-65.7c-1.7 1.1-2.4 156.1-.7 159.5 1.65 3.3 17.15 3.75 19.75.6 2.25-2.75 2.75-157.55.55-159.75-1.4-1.4-17.55-1.65-19.6-.35m-952.1 6.7c-3.75 4.3-4.25 7.75-1.95 13.7 3.95 10.1 21.4 8 23.45-2.8 2.3-12.4-13.25-20.3-21.5-10.9m-272.8-1.85c-1.7.25-3.55.95-4.1 1.6-2 2.65-6.3 11.7-9.75 20.7-2 5.2-4.05 9.95-4.5 10.55-.5.6-1.15 3.05-1.55 5.5-.35 2.45-1.35 5.75-2.1 7.3-.8 1.6-2.1 5.3-2.9 8.3-.75 2.95-2.35 7.3-3.55 9.6-1.15 2.3-2.9 6.9-3.9 10.2-1 3.35-4.05 11.65-6.9 18.55-7.1 17.4-8.85 22.1-9.6 25.25-.35 1.5-1.25 2.75-2 2.75-1.4 0-5.45-4.65-5.45-6.3 0-.55-.85-2.85-1.85-5.1-5.2-11.45-6.15-13.8-6.15-15.4 0-.9-2.75-9.6-6.1-19.2-3.3-9.65-6.3-18.65-6.6-20-.35-1.4-1.2-3.4-1.95-4.45-.75-1.1-1.35-2.75-1.35-3.65s-.9-2.75-2-4.15-2-3.35-2-4.3c0-1-1.55-5.1-3.5-9.15-1.9-4.05-3.5-8.1-3.5-8.95s-.65-2.95-1.45-4.7-1.9-5-2.5-7.3c-1.5-5.75-3-6.65-12.35-7.15-7-.35-8.55-.15-10.6 1.5l-2.35 1.95 2.1 3.9c3.6 6.85 8.5 19.4 9.9 25.45.3 1.35 1.4 3.55 2.4 4.9 1 1.3 1.85 3.4 1.85 4.7s.85 4.25 1.9 6.6c1.8 4.05 3 7.25 6.05 15.8.7 1.9 2.35 7.1 3.65 11.45s2.85 8.4 3.4 8.95 1 1.9 1 3.05.9 3.4 2 5.05 2 3.9 2 5.05c0 1.1.75 3.05 1.65 4.35.85 1.25 1.95 3.7 2.4 5.45s1.6 5.4 2.55 8.15c1 2.75 3.55 10.15 5.7 16.5 8.8 25.95 8.45 25.55 23.6 24.8 6.55-.3 6.55-.3 9-5.8.6-1.4 1.5-3.2 2-4 .45-.85 1.75-4 2.85-7 4.05-11.35 6.1-16.8 10.1-27.05 2.3-5.8 4.15-11.1 4.15-11.75s.9-2.9 2-4.95 2-4.35 2-5.15.65-2.15 1.4-3c1.5-1.65 3.75-7.2 6.15-15.1 3.7-12.05 8.55-26.2 10.85-31.5.75-1.65 2.3-5.7 3.55-9 1.2-3.3 3-8.05 4-10.5 9.45-24 8.8-25.6-9.65-23.3m-1410.05 1.35c-1.25.5-2.55 1.55-2.85 2.35-.65 1.7 5.9 15.6 11.15 23.65 1.95 3 4.2 6.8 5 8.45.75 1.65 1.8 3.65 2.3 4.5.5.8 2.65 5.05 4.8 9.35 2.1 4.3 4.2 8.05 4.6 8.3s.75 1.7.75 3.2c0 1.7 1.25 4.1 3.25 6.35 1.8 1.95 5.25 7.45 7.65 12.2 2.45 4.8 5.95 11 7.75 13.85l3.35 5.2v27.15c0 32.9-.55 31.35 11.5 31.75 11.1.45 10.5 1.75 10.6-22.2.15-33.15.55-36.3 6-44.65 2.55-3.85 7.85-13.55 11.85-21.5 4-8 8.65-16.75 10.3-19.5 12.9-21.45 25.6-48.3 23-48.6-20.85-2.45-19.25-3.75-36.75 30.6-3.65 7.15-7.2 13.65-7.9 14.5-.7.8-3.85 6.65-7.05 13-8.75 17.3-9 17.5-13.7 9.25-1.8-3.15-3.85-6.35-4.55-7.05-.7-.75-1.3-1.95-1.3-2.75 0-.75-1.1-3-2.45-5s-5.3-9.05-8.75-15.6c-3.45-6.6-7.5-14.1-8.95-16.7-1.45-2.55-4.15-7.75-5.95-11.55-4.35-8.95-14-12.45-23.65-8.55m496.5 1.05c-1.4.8-1.75 2.4-1.75 8.4 0 10.85-.75 10.5 23 10.5 10.95 0 21 .45 22.45 1l2.55.95v65.55c0 76.7-1.25 69.5 11.95 69.5 12.2 0 11.05 7.15 11.05-68.45 0-58 .15-65.45 1.55-66.6 1.2-.95 7.1-1.35 23.25-1.4 11.95-.05 22.25-.45 22.95-.9 1.7-1.05 1.7-16.8.05-18.45-1.55-1.55-114.35-1.7-117.05-.1m1572 0c-2 1.15-2.75 150.75-.8 153.9 1.15 1.8 15.7 2.65 18.05 1.1 1.25-.85 1.6-5.85 2-31.1.6-35.45-1.3-31.95 17.1-32 15.25 0 17.4.75 19.95 7.2.7 1.8 3.95 8 7.25 13.8 3.3 5.75 7.7 13.65 9.7 17.5 14.05 26.45 13.05 25.45 26.15 25.5 10.95 0 13.65-2.4 9.5-8.55-.75-1.05-3.75-6.45-6.65-11.95-2.95-5.5-6.6-12.25-8.2-15-1.55-2.75-3.1-5.85-3.45-6.9-.8-2.25-3.45-7-9.2-16.4-4.75-7.75-4.7-8.2.75-11.6 6.8-4.35 15.7-14 17.65-19.2 1-2.7 2.4-5.8 3.15-6.85 3.35-5.05.7-30.7-3.8-36.35-1.05-1.35-1.9-3.1-1.9-3.9 0-4.65-12.25-14.1-23.05-17.75-8.15-2.75-69.9-4-74.2-1.45m64.25 21.4c1.6.85 3.75 1.5 4.75 1.5 5.55 0 11.25 10.95 11.25 21.6 0 11.7-2.8 17.75-10.65 23l-5.85 3.9-21.05.35c-16.95.3-21.25.05-22.2-1.05-2-2.45-1.9-48.85.1-50.35 2.55-1.85 39.8-.95 43.65 1.05m-1184-13.85c-5.8.95-6.8 1.45-7.95 4.3-.8 1.85-1.1 6.45-.9 12.45.4 11.35.35 11.45-9.05 12.45-8.7.95-9.05 1.4-9.1 10.85 0 8.6.75 9.3 9.9 9.3 8.8 0 8.45-1.8 7.85 40.45-.5 33.85-.4 36.4 1.45 42.05 3.95 12.1 13.85 18.5 28.6 18.5 14.85 0 17.1-1.75 15.75-12.45-.85-6.7-2.25-8-7.7-7.15-5.8.95-10.15-.8-13.25-5.25l-2.6-3.75v-35c0-40.2-.75-37.35 9.95-37.5 12.1-.15 12.45-.35 13.1-7.95 1-11.1.35-11.7-13.85-12.8l-8.7-.65-.25-11c-.3-14.15-.55-15.05-4.4-16.4-3.15-1.1-4.25-1.15-8.85-.45m1500 2.35c-1.75 1.75-2 3.35-2 12.9 0 12.85.1 12.7-10 13.5-9.75.8-10.45 1.6-10.15 10.85.3 8.95.3 8.95 9.85 9.55 4.3.25 8.15.95 8.55 1.6.4.6.75 18.1.75 38.85 0 36.75.05 37.85 2.25 43.35 5 12.6 14.45 17.95 30.4 17.2 13.65-.65 14.35-1.15 14.35-10.2 0-9.8-.9-10.75-10.1-10.5-13.55.35-13.9-.8-13.9-42 0-40.5-.8-37.8 11.3-38.25 12-.45 12.7-1 12.7-9.85 0-8.7-.65-9.25-13.4-10.5l-10.1-1-.3-11.95c-.35-15.1-.65-15.55-10.85-15.55-6 0-7.7.35-9.35 2m-1782 25.95c-3.8 1.15-9.2 4.05-12.35 6.7-3.7 3.1-6.45 3.05-7.25-.15-1.4-5.6-18.75-8.45-21.35-3.55-.7 1.25-1.05 20.95-1.05 57.05s.35 55.8 1.05 57.05c1.6 3 18.35 2.9 19.95-.1.75-1.3 1.3-15.35 1.65-39.75.55-37.55.55-37.7 3-42.95 1.4-2.9 2.85-5.25 3.3-5.25s3-1.8 5.65-4c4.8-3.95 5-4 13-4 10.6 0 12-1.1 12.85-10 .8-7.95-.35-9.85-6.5-11.05-5.35-1.05-8.6-1.05-11.95 0m185.2.05c-21.8 3.05-35.45 20.05-31.75 39.5 2.15 11.1 4.8 14.55 16.6 21.7 4.05 2.5 14.55 6.3 26.85 9.75 18.8 5.25 23.1 8.45 23.1 17.05 0 8.55-4.6 12.6-18 16.05-10.85 2.8-24.45-3.6-29.8-14.05-2.8-5.45-2.9-5.5-7.75-5.8-14.4-.95-17.1 2.85-11.1 15.4 10.65 22.2 45.25 30.05 71.65 16.2 20.1-10.55 24.8-33 10.7-51.1-4.1-5.25-9.7-7.8-30.7-14-24.6-7.25-29-10-29-18.45 0-17.5 30.8-19.7 42-3 4.2 6.25 6.7 6.8 17 4 7.55-2.05 7.9-2.8 5.05-10.4-6.45-17.2-28.65-26.45-54.85-22.85m190.3-.05c-1.1.5-3.05.95-4.35 1-1.25 0-4.7 1.6-7.6 3.55-2.9 1.9-5.65 3.5-6.2 3.5-1.55 0-14.35 13.45-14.35 15.15 0 .85-.9 2.75-2.05 4.15-2.5 3.25-5.95 12.95-6 17.1 0 1.7-.65 4.2-1.45 5.6-1.6 2.8-2.15 24.5-.65 25.4.5.3 1.45 2.7 2.1 5.3 6.85 26.55 23.3 40.25 49.3 41.1 22.75.75 37.45-5.95 46.7-21.35l3.45-5.75-3.95-3.3c-5.8-4.95-13.3-7.3-15.15-4.8-12.2 16.7-27.75 21.55-41.95 13.1-11.25-6.7-20.4-25.45-15.05-30.9.1-.15 17.55-.5 38.7-.75l38.5-.55-.1-9c-.1-12.05-1.3-21.5-3-23.95-.75-1.1-1.4-3.05-1.4-4.35 0-5.55-11.45-19.65-18.25-22.4-.95-.4-1.75-1.15-1.75-1.7 0-.5-1.7-1.5-3.75-2.15-2.05-.7-4.7-1.85-5.85-2.6-2.55-1.65-23-2.8-25.9-1.4m21.45 21.55c9.1 4.6 17.95 21.3 13.9 26.2-1.9 2.25-49.95 1.85-52.8-.45l-2.15-1.75 2.65-6c8.15-18.45 23.4-25.65 38.4-18m413.15-21.5c-10.25 2.2-27.85 14.3-31.2 21.5-.5 1.1-2.3 4.25-4 6.95-1.7 2.75-3.55 7.45-4.05 10.5-.55 3.05-1.5 6.9-2.15 8.55-1.95 5.1-1.45 27.1.75 33 7.95 21.1 13.75 28.9 27.2 36.5 12.25 6.9 38 6.9 49.85-.05 5.25-3.05 15.5-11.05 15.5-12 0-.45 1.05-2.05 2.35-3.6 4.8-5.75 3.95-9.05-3.35-12.8-7-3.65-8.8-3.25-14.9 3.2-14 14.95-32.35 16.4-44.25 3.5-4.85-5.25-9.9-14.95-10.55-20.15-.85-7.2-1.3-7.1 40.5-7.1 20.8 0 36.35-.45 37.2-1 3.55-2.25.05-33.6-4.4-39-.65-.85-1.8-2.85-2.5-4.5-7.55-17.6-30.55-28-52-23.5m18.35 20.05c9.3 3.5 16.15 12 18.15 22.5 1.2 6.45 1.1 6.45-27.6 6.45-29.8 0-29.95-.05-26.3-7.35 1.15-2.25 2.55-5.3 3.1-6.65 5.2-13.15 19.7-19.8 32.65-14.95M3859 1143.9c-4.1.4-9.05 1.5-11 2.5-3.65 1.8-4.5 2.3-9.5 5.6-3.95 2.65-4.25 2.55-5.9-1.4-2.3-5.5-15.8-7.45-20.7-3-2.4 2.15-3 110.5-.65 113.75 1.65 2.2 17.85 2.9 19.95.85 1-1 1.4-10.05 1.8-40.05l.5-38.7 4-7c10.35-17.95 36.2-19.05 43.5-1.85 2.5 5.9 2.5 6 3 45.9.3 22 .85 40.55 1.3 41.25 1.15 1.75 17.05 1.7 18.5 0 1.7-2.05 2.05-82.75.4-90.05-4.95-21.8-18.75-30.3-45.2-27.8m179 .4c-2.45.65-5.15 1.65-6 2.15-.8.55-3.5 2.05-6 3.35-11.9 6.25-22.05 22.8-16.9 27.65.75.7 4.9 1.6 9.2 1.9l7.75.65 3.25-4.75c14.5-21.3 46.7-15.6 46.7 8.25 0 8.2.2 8.1-18.2 8.95-15.65.65-19 1.1-28.65 3.5-15.5 3.9-25.8 15.5-26.65 30-1 16.4 3.7 25.9 17.35 35.3 13.25 9.1 40.65 6.8 50.65-4.25 2.6-2.9 4.1-2.5 6.15 1.75l1.85 3.75 10.25.3c7.8.2 10.25-.05 10.35-1 .8-13.05-.5-86.5-1.55-88.2-.7-1.15-1.6-3.3-1.95-4.8-4.25-18.45-33.55-30.9-57.6-24.5m36.95 67.65c5.7 10.65-4.15 27.9-19.25 33.65-14.1 5.4-30.7-3.4-30.7-16.2 0-6.7 9.4-16.75 16.85-17.95 2-.3 4.35-.75 5.15-.9 6.75-1.4 27-.4 27.95 1.4m-2414.6-66.5c-17.7 5.5-33.2 23.2-34.9 39.8-.2 2.1-.85 4.65-1.4 5.7-2.95 5.5-.65 31.95 3.6 41.7.75 1.75 1.35 3.75 1.35 4.5 0 4.75 11.45 17.2 21 22.85 12.55 7.45 42.15 8.55 49.55 1.85 1.15-1 2.85-1.85 3.85-1.85 2.35 0 12.85-10.1 15.2-14.7 1.05-2.05 2.9-5.25 4.15-7.15s2.25-4.45 2.25-5.75c0-1.25 1-4 2.25-6.1 3.9-6.55 2.9-38.75-1.4-45.8-1-1.65-1.85-3.95-1.85-5.15 0-1.15-.65-2.65-1.45-3.3-.8-.7-1.75-2.15-2.15-3.3-2.7-8.55-12.45-16.7-27.7-23.15-4.7-2-26.1-2.1-32.35-.15m25.85 18.5c8.8 3.9 18.15 15.5 20.1 24.95 2.05 9.65 2 31.85-.05 34.85-1 1.5-2.6 4.5-3.55 6.6-3.1 6.8-7.85 11.75-14.2 14.8-31.15 14.85-56.6-31.4-36.85-67.05 7.15-12.95 22.8-19.35 34.55-14.15m225.85-18.5c-.65.8-2.45 1.7-4 2.05s-3.65 1.5-4.6 2.55c-2.5 2.75-5.15 2.4-6.9-.95-1.9-3.65-3.15-4.1-12.1-4.1-11.1 0-10.3-5.1-9.95 60.45.35 64.6-.85 58.55 11.5 58.55 12.05 0 11.05 3.7 11.3-42 .25-46 0-44.85 10.7-52.75 5.7-4.15 5.95-4.25 13.85-4.25 10.3 0 11.15-.75 11.15-10.15 0-10.5-.35-10.85-10.9-10.85-6.5 0-9.2.4-10.05 1.45m290.7-.7c-9.2.55-8.75-1.7-8.75 44.85 0 33.45.25 40.75 1.5 43.75.85 1.95 1.5 4.75 1.5 6.15 0 4.7 5.65 14.05 11.55 19.15 12.4 10.75 37.6 11.2 51.05.95 5.75-4.4 7.2-4.5 8.55-.55 2.15 6.1 18 7.25 20.65 1.5 2.25-5 1.4-112.35-.95-114.7-1.35-1.35-2.75-1.85-4.2-1.45-1.2.3-4.45.6-7.2.6-9.25 0-8.65-2.8-9.15 42.6l-.5 39.9-3.15 5.35c-10.55 17.85-34.3 20.3-42.3 4.35-1.2-2.35-2.8-5.05-3.5-5.9-1.1-1.3-1.35-9.95-1.35-42.4 0-48.2 1-45-13.75-44.15m1048.45 1.2c-2.9 1-6.3 2.7-7.5 3.8s-3.2 2.3-4.4 2.7c-2.05.6-7 6.05-11.95 13.1-3.55 5.1-7.35 15.8-7.35 20.65 0 2.5-.65 5.85-1.5 7.45-2.1 4-2.1 23.5 0 26.7.8 1.25 1.75 4.5 2.15 7.2.35 2.9 2 7.25 4 10.6 1.85 3.1 3.35 6.15 3.35 6.8 0 1.9 10.05 12 15.5 15.55 10.45 6.85 40.4 7.65 48.35 1.3.9-.7 3.4-2.2 5.5-3.3 5.1-2.55 13.4-11.95 14.85-16.75.6-2.05 1.75-4.25 2.45-4.9 1.45-1.2 1.8-8.55.55-10.6-.85-1.3-15.05-2.1-16.95-.9-.6.35-1.35 1.9-1.7 3.45-3.4 15.45-25.05 23.95-39.4 15.45-23.25-13.75-23.6-67.75-.55-78.75 14.75-7 26.75-3.05 36 11.8l5.1 8.2 7.6.3c11.4.45 15-5.35 8.55-13.7-1-1.3-1.85-3.05-1.85-3.85 0-3.15-8.5-12.25-16.75-17.85-9.8-6.7-31.15-8.85-44.05-4.45m166.8-.5c-1.35.85-4.05 2.2-6 3-1.9.85-4.65 2.35-6.1 3.3-1.4.95-3.6 2.4-4.85 3.25-2.85 1.9-11.85 15.25-12.65 18.8-.35 1.5-1.2 3.6-1.9 4.75-.7 1.1-1.55 4.5-1.85 7.5s-1.05 6.9-1.7 8.65c-2.05 5.8.2 27.65 3.45 33.8.85 1.65 1.6 3.75 1.6 4.65 0 6.15 16.4 26.85 21.25 26.85.6 0 1.85.7 2.8 1.55 7.2 6.5 35.45 6.8 47.8.55 4.65-2.4 16.15-11 16.15-12.1 0-.4 1.35-2.7 3-5.1 3.8-5.65 3.75-6.1-1-9.9-7.35-5.85-10.5-5.4-19.2 2.65-14.05 13-27.2 13.9-41.3 2.75-5.8-4.55-12.7-17.85-12.3-23.65l.3-4.25 37.9-.25c27.75-.2 38.3-.6 39.35-1.5 2-1.6 1.15-23.8-1.15-32.25-3.9-14.05-11.7-23.75-24.2-30.1l-7.7-3.9-14.6-.25c-11.5-.2-15.15.05-17.1 1.2m24.25 18.3c9.65 2.65 15.95 9.95 18.7 21.7 1.8 7.65 2.05 7.55-28 7.55-29.05 0-29.55-.1-26.55-6.4.85-1.85 1.6-3.8 1.6-4.25 0-1.7 4.25-8.9 6.85-11.65 7.5-8 15.95-10.15 27.4-6.95m279.45-18.3c-2.1.75-5.55 2.5-7.75 3.95-2.15 1.45-4.2 2.6-4.55 2.6-6.6 0-22.25 25.5-22.4 36.5-.05 1.65-.7 4.1-1.5 5.5-5.5 9.65-.05 36.1 10.6 51.7 18 26.2 58.95 28.35 81.3 4.2 10.1-10.9 10.4-12.35 3-15.95-8.9-4.3-11.5-3.95-17.75 2.45-18.65 19.1-41.3 13.9-52.45-12.1-5.4-12.7-6.65-12.3 38.45-12.3 44.1 0 40.4 1 40.3-10.7-.2-27.85-11.4-47.2-31.95-55.3-6.25-2.45-28.95-2.85-35.3-.55m28.8 20.45c6.15 3.4 11.75 11.25 13.45 18.85 1.95 8.55 2.95 8.25-27.45 8.25-29.25 0-30.5-.25-27.3-5.8.85-1.5 1.9-4.15 2.25-5.95 1.1-5.05 11.85-15.45 18.05-17.45 6.8-2.2 14.65-1.4 21 2.1m-1997.45-18.95c-2.05 3.8-1.3 85.4.85 93.2 5.1 18.8 18.3 26.65 42.9 25.65 12.55-.55 14.2-1.05 21-6.55 4.4-3.55 7.2-3.75 7.2-.5 0 1.05.55 2.4 1.2 3.05 1.6 1.6 18 1.6 19.6 0 1.75-1.75 1.75-113.85 0-115.6-.75-.75-4.45-1.2-9.85-1.2-12.95 0-11.95-3.7-11.95 43.45 0 44.7.4 42.05-7.85 50.8-9.2 9.7-30 10.2-36.85.95-5.95-8.1-6.3-11-6.3-52.8 0-45.6.8-42.4-10.5-42.4-7.3 0-8.55.25-9.45 1.95m1423 0c-1.6 2.95-1.45 113.25.15 114.85 2.65 2.65 18.7 1.55 19.8-1.35 1.85-4.8 1.3-110.6-.55-113.25-2.2-3.15-17.75-3.35-19.4-.25"/></svg>