<svg xmlns="http://www.w3.org/2000/svg" width="1424.148" height="511.233" viewBox="0 0 1068.111 383.425"><g fill="#16181D"><path d="M279.225.274c-7 1.05-11.9 3.5-27.85 13.6-9.55 6.1-17.55 11.6-17.8 12.3s1.95 6.8 4.95 13.6c5.05 11.35 11.7 30.15 11.7 33.1.05 2.65 1.8 3.7 8.65 5.1 17.85 3.75 24.5 10.6 35.8 37.15 5.5 12.75 5.15 12.45 13.3 12.5h6.25v-48.8c0-52.6-.3-55.95-5.35-64-6.3-9.95-19-16.2-29.65-14.55m-91.5 54.45c-28.4 18.55-32.7 21.8-26.85 20.2 1.55-.45 18.5-.8 37.65-.8h34.85l-.65-3.35c-1.75-9.25-12.45-35.2-14.5-35.05-.8.05-14.55 8.6-30.5 19"/><path d="M154.475 92.224c-30.2 2.35-31.75 3.95-49.8 51.4-3.6 9.4-4.05 9.65-6.95 3.65l-2-4.15-8.5.1c-11.6.1-15.45 2.55-14.2 9.1.65 3.55 3.95 5.2 13.6 7 10.05 1.85 9.8 1.2 4.05 8.8-9.65 12.85-11 22.1-9.8 66.9.85 30.15-1 27.6 20.2 27.6 19.05 0 19.35-.15 20.15-10.85l.5-6.65h151l.3 6.5c.5 10.65 1.15 11 20.35 11 21.85 0 20.9 1.45 20.8-30.4-.15-44.9-1.3-51.95-10.85-64.55-5.25-6.9-5.45-6.45 3.95-8.3 20.4-4.05 19.1-16.75-1.75-16.75-6.9 0-9 1.3-10 6.15-.8 4.1-2.4 3.1-5-3.25-17.35-42.3-20.5-47.45-30.75-50.4-14.3-4.15-69.8-5.7-105.3-2.9m75.75 7.4c28.4 1.45 31.8 2.7 37.15 13.35 4.95 9.75 15.8 38.1 14.95 38.95-.45.45-14.05.35-30.2-.25-37.75-1.35-72.65-1.35-109.65.05-17.6.65-29.85.7-30.35.2-1.75-1.75 14-40.4 18.4-45.15 6.35-6.95 47-9.85 99.7-7.15m-110.25 58.5c3.8.75 11.55 8.95 15.7 16.55 3.7 6.8 2.75 6.3-8.1-4.05-5.2-4.95-10.55-9.75-11.9-10.6-2.85-1.9-3.25-3.75-.7-3.05.95.3 3.2.8 5 1.15m161.2-.75c0 .4-2.15 2.45-4.75 4.5s-8.3 7.1-12.65 11.2c-4.4 4.1-8.15 7.3-8.35 7.05-.75-.7 8.55-13.9 12.5-17.7 4.1-3.95 13.4-7.5 13.25-5.05m-170.35 29.2c18.8 4.9 19.75 5.35 23.4 10.9 5.95 8.9 4.35 10.4-9.65 9.1-30.4-2.85-33.15-4.35-33.3-18.05-.1-7.3-.65-7.2 19.55-1.95m191.8 2.55c-.15 11.95-2.35 13.7-20 16-22.65 2.95-28.3 2-25.05-4.15 4.15-7.9 6.15-9.05 23.15-13.8 21.3-5.9 22.05-5.85 21.9 1.95m-57.75 3.55c4.85 1.85 5.1 4.35 1.1 12.45-5.65 11.4-6.8 11.9-31.4 13.55-23.35 1.55-51.65-.1-58.3-3.35-9.4-4.6-14.35-21.5-6.75-23 5.1-1 92.65-.65 95.35.35"/><path d="M87.975 119.224c-13.1 8.45-13.8 9.35-7 8.75 14-1.25 13.15-.8 16.4-8 4.15-9.2 3.75-9.2-9.4-.75m-50.75 32.85c-11.25 7.3-22.85 15.4-25.7 17.95-15.1 13.6-15.4 35.65-.65 49.75 4.35 4.2 49.35 32.5 53.3 33.55 1.4.35 1.5-1.85 1.2-20.45-.4-23.25 1.05-47.9 3.2-56.2l1.45-5.45-4.25-3.75c-7.55-6.65-10.15-16.55-7-26.6 1.05-3.45.4-3.1-21.55 11.2m551.75-7.35c-.95.55-2.45 2.4-3.35 4.05-4.8 9.3 6.4 18.25 14.3 11.45 8.25-7.1-1.55-21-10.95-15.5m355.25.05c-29.75 4.8-46.2 41.95-31.2 70.35 12.55 23.7 42 31.8 63.95 17.6 6.45-4.2 14.25-13.2 14.25-16.5 0-1.15-14.25-7.75-14.95-6.95-.35.5-1.9 2.55-3.4 4.6-12 16.4-39.35 10.25-46.2-10.4-10.4-31.3 25.4-58.7 45.7-35 4.25 4.95 4.3 4.95 11.8 1.15 8.35-4.2 8.4-3.9-.95-14.15-7.95-8.7-24.05-13.15-39-10.7m-125.5 2c-14.35 5.4-19.15 26.6-8.05 35.8 2.4 2 1.85 3.3-3.05 6.9-32.5 23.9 5.1 66.2 38.75 43.55l5.25-3.55 3.9 4.1 3.85 4.05h8.95c10.7 0 10.65 1 .9-10.9-9.25-11.3-8.95-10.1-4.6-18.25 3.25-6 8.6-19.05 8.6-20.95 0-.5-3.35-.9-7.5-.9h-7.45l-3.65 8c-4.3 9.35-4.65 9.5-10 3.25-7.4-8.6-7.35-8.3-1.75-13.55 12.85-12 12.55-28.4-.7-36.15-3.95-2.3-18.65-3.2-23.45-1.4m15.2 13.35c5.85 4.1.75 18.5-6.55 18.5-1.95 0-6.35-6.9-6.85-10.9-1-7.2 7.3-11.9 13.4-7.6m-1.75 46.75c9.25 10.7 9.25 10.65 4.3 14.05-10.5 7.2-23.25 2.25-23.25-9 0-6.45 5.3-14.3 9.65-14.3.7 0 4.85 4.15 9.3 9.25m-447.05-59.45-7.65.3-7.55 19.2c-4.2 10.55-8.5 21.45-9.65 24.2-6.2 15.05-17.05 43.75-17.05 45 0 1.2 1.65 1.5 8.25 1.5h8.3l4.1-10.75 4.1-10.75h36.45l4.2 10.5 4.2 10.5 8.85.3c8.1.25 8.75.15 8.1-1.5-.4-1-2.5-6.65-4.6-12.55-2.15-5.9-5.2-14-6.85-18s-5.95-14.9-9.6-24.25c-14.65-37.55-12.25-34.15-23.6-33.7m12 48.05c2.45 4.5 1.1 5.15-10.8 5.15-6.05 0-11.2-.35-11.45-.75-.4-.75 9.15-27.5 10.8-30.2.55-.85 2.4 2.9 5.5 11.05 2.55 6.85 5.25 13.45 5.95 14.75m295.35-48.2c-.85.35-1.25 3.1-1.25 8.85v8.35l2.75.35c3.95.45 3.3 5.15-1.3 9.6-5.7 5.5-4.35 9.45 2.25 6.7 9-3.8 14.25-12.65 14.3-24.15 0-4.5-.45-7.45-1.25-8.1-1.4-1.1-13.6-2.35-15.5-1.6m-224.7 22.85c-2.2.75-5.85 2.75-8.2 4.4l-4.25 3-.3-3.2-.3-3.2-8.25-.3-8.25-.3v67.2l8.25-.3 8.25-.3.5-22.05c.6-26.6 1.9-29.8 12.7-31.1 10.85-1.25 12.7 3 13.3 30.45l.5 22.7 8.3.3 8.3.3-.3-26.3c-.3-24.95-.4-26.5-2.5-30.45-5.4-10.05-17.1-14.65-27.75-10.85m74.45-.4c-1.9.6-5.65 2.6-8.25 4.5-5.85 4.2-5.75 4.2-5.75-.15v-3.55l-8.25.3-8.25.3v66l8.25.3 8.25.3v-20.85c0-27.75 3.1-34.2 15.8-32.9 9.85 1 11.2 4.9 11.2 32.1v21.55h17v-23.8c0-31.15-1.25-35.75-11.55-41.75-5-2.95-13.05-3.95-18.45-2.35m93.9.25c-20.7 7.65-29.2 33.2-18.05 54.05 9.55 17.9 38.65 20.95 53.55 5.7 4.65-4.75 4.4-5.75-2.7-9.5l-5.5-2.9-4.25 3.6c-9.05 7.75-22 5.4-27-4.85-3.65-7.6-4.1-7.45 22.6-7.45h23.65l-.35-8.75c-.55-13.6-6.3-22.85-17.4-28.25-6-2.9-18.85-3.8-24.55-1.65m18 15.25c3.05 1.8 6.8 6.9 7.25 9.9.35 1.9-.3 2-14.9 2.3-16.4.25-16.2.35-13.85-5.15 3.2-7.7 14.3-11.3 21.5-7.05m76.15-15c-14.9 6.45-18.75 22.4-7.8 32.05 3.6 3.15 7.75 4.95 17.75 7.8 9.45 2.65 12.75 7.05 8.95 11.85-4.2 5.4-15.65 4.3-20.8-1.95l-2.75-3.35-6.2 2.75c-7.1 3.1-7.25 3.5-3.25 9.05 14.1 19.45 51.05 11.35 51.05-11.25 0-11.25-5.25-16.4-22.15-21.65-10.65-3.3-13.45-5.4-12.45-9.4 1.4-5.55 11.55-5.9 17-.6 4 3.9 7.15 3.35 15.4-2.5.2-.1-.35-1.5-1.15-3.1-4.55-8.8-23.25-14.2-33.6-9.7m292.95-.25c-7.55 2.95-8.65 3.6-12.7 7.1-14.7 12.7-14.7 42 0 53.9 29.4 23.8 68.35-5.4 54.8-41.05-6.05-16-26.95-25.9-42.1-19.95m17.95 15.4c10.6 5.3 13.5 23.6 5.35 33.3-10.85 12.9-30.2 4.2-30.3-13.65-.05-16 12.55-25.9 24.95-19.65m-455.5-13.55c-.25.75-.35 15.7-.2 33.3l.25 32 8.25.3 8.3.3-.3-33.3-.25-33.3-7.75-.3c-5.7-.2-7.9.05-8.3 1m-459.45 110.8v9l5.25 3.35c14.15 9.15 43.25 26.65 44.3 26.65 3.55 0 37.45-42.9 37.45-47.35 0-.35-19.55-.65-43.5-.65h-43.5zm108.8-7.95c-.9.55-3.35 3.8-5.4 7.2-9.55 15.85-22.1 32.25-34 44.3-5.55 5.65-7.35 3.6 15.1 17.35 65.5 40.2 62.95 38.8 70.85 39.7 11.6 1.35 22.75-4.75 28.7-15.75l3.45-6.35v-60l-19.25-.5-19.2-.5-3.3-3.25c-3.1-3.15-3.25-3.65-3.75-13l-.5-9.75-15.5-.25c-8.95-.1-16.2.2-17.2.8m436.2 5.5c0 6-.2 6.6-1.75 5.9-12.6-5.6-22.7 8.15-16.3 22.2 2.65 5.85 10.9 8.65 15.95 5.45.85-.55 2.1-.5 3.15.15 4.6 2.9 5 1.15 4.7-20l-.25-19.75-2.75-.3-2.75-.35zm-2.05 12.1c4.8 6.1 1.5 18.35-4.95 18.35-6.1 0-9.35-10.6-5.45-18.05 2.05-4 7.35-4.2 10.4-.3m92.3 1.55.25 20.3h2.5c2.5 0 2.5-.05 2.8-10.75.3-11.95 1.65-14.3 7.85-13.55 4.15.45 5.3 3.8 5.35 15.1 0 9.65.05 9.85 2.25 9.5 3.9-.55 3.45-23.95-.55-27.4-3.3-2.8-9.1-3.2-12.45-.9-2.15 1.55-2.15 1.5-2.45-5.25-.3-6.55-.4-6.75-3.05-7.05l-2.8-.35zm71.75.35v20.6l2.25-.35c2.25-.3 2.25-.4 2.5-20.55l.3-20.25h-5.05zm197.25-.3c.25 19.5.3 20.25 2.25 20.25s2-.75 2.25-20.25l.3-20.25h-5.1zm-306.35-18.25c-.9.55-2.65 3.8-3.9 7.25-9.05 24.9-8.85 24.6-11.9 15.5-6-17.75-8.45-22.75-11.2-22.75h-2.65l6.45 17.65c10.3 28.45 10.45 28.5 19.25 4.85 2.85-7.7 5.8-15.7 6.65-17.8 1.9-5.1.9-6.8-2.7-4.7m68.5.45c-.9 2.35.35 4.75 2.35 4.35 1.1-.2 1.75-1.25 1.75-2.8 0-2.85-3.15-4.05-4.1-1.55m-421.4 0c0 .75 10.2 19.95 11.4 21.45.6.75 1.35 4.8 1.6 9 .45 6.75.7 7.6 2.5 7.6s2.05-.85 2.5-7.5c.5-6.85 1.1-8.55 6.85-19.25l6.35-11.75h-2.85c-2.55.05-3.35.95-7.75 9.2-5.55 10.5-4.95 10.6-11.35-1.9-3.3-6.4-4.1-7.3-6.5-7.3-1.5 0-2.75.2-2.75.45m124.4 1c-1 2.6.6 3.55 6.15 3.55h5.4l.3 16.75.25 16.75h5l.25-16.75.3-16.75h5.95c5.75 0 6-.1 6-2.5v-2.5h-14.55c-11.75 0-14.6.25-15.05 1.45m393.05-.15c-1.85 4.75.1 37.2 2.25 37.5 2.1.3 2.25-.05 2.5-7.5l.3-7.8 4.1-.3 4.15-.3 4.4 7.8c3.6 6.4 4.85 7.85 7.1 8.1 3.65.45 3.5-.55-1.3-9l-4.05-7.1 3.1-3.2c5.4-5.6 4.4-15.05-2-18.2-3.45-1.75-19.9-1.75-20.55 0m18.35 5.25c6.1 4.3 1.15 11.7-7.6 11.25l-5.7-.3-.3-6.25-.3-6.25h5.85c3.65 0 6.65.6 8.05 1.55m-299.8-1.6c0 2.4-.6 3.3-2.5 4.05-3.2 1.2-3.4 4.75-.25 5.2 2.15.3 2.25.7 2.3 10.5.1 12.1 1.25 14.3 7.6 14.3 3.2 0 3.85-.35 3.85-2 0-1.25-.65-2-1.8-2-3.45 0-4.2-2.1-4.2-11.65v-9.2l2.75-.35c3.85-.45 3.9-4.15.05-4.6-2.2-.25-2.75-.9-3-3.5-.45-4.65-4.8-5.35-4.8-.75m376.7-2.35c-.4.4-.7 2-.7 3.5 0 2.1-.55 2.85-2.25 3.1-1.5.2-2.25 1-2.25 2.3s.75 2.1 2.25 2.3c2.15.35 2.25.7 2.25 10.55 0 12.7 1.1 14.9 7.35 14.45 5.25-.4 6.25-3.05 1.7-4.65l-3.05-1.05v-18.95l2.75-.35c3.85-.45 3.9-4.15.05-4.6-2.2-.25-2.75-.9-3-3.5-.3-3.15-3.25-4.9-5.1-3.1m-573.5 8.45c-5.8 3.5-8.1 14.15-4.7 21.35 4.3 9 18.65 9.15 22.85.25 6.75-14.25-5.8-29.15-18.15-21.6m9.9 2.95c1.8 0 4.9 6.55 4.9 10.3 0 10.35-9.1 14.5-14.05 6.35-4.3-7.05.65-19.3 6.9-17.1.7.25 1.75.45 2.25.45m16.6-4.35c-1.4 1.4-.75 22.3.75 25.3 2.05 3.95 10.35 5.75 14.45 3.15.85-.55 2.1-.5 3.15.15 4.35 2.75 5 .75 4.75-14.5l-.3-14.25h-2.5c-2.5 0-2.5.05-3 11.2-.55 11.95-.9 12.95-5.55 13.85-5.75 1.1-6.9-.95-7.45-13.7-.5-11.1-1.6-13.95-4.3-11.2m30.95 0c-.35.4-.65 7.15-.65 15v14.35h5v-10.45c0-11.45 1.45-14.55 6.7-14.55 1.8 0 2.3-.55 2.3-2.5 0-2.8-2.55-3.35-6.15-1.4-1.5.8-2.35.8-3.15 0-1.25-1.25-3.05-1.45-4.05-.45m60.8.65c-1.65 4.3.1 28.2 2.05 28.2 1.85 0 2.05-.85 2.5-10.15.55-11.15 1.85-13.95 6.85-14.55 3.05-.35 4.15-3.45 1.6-4.45-.95-.4-3.1-.15-4.8.5q-3.075 1.125-4.05.15c-1.4-1.4-3.55-1.25-4.15.3m19.25-.65c-2.05 2.05-.7 24.25 1.65 26.95 2.65 3.1 10.15 3.9 13.15 1.4 1.2-1 1.85-1.05 2.75-.15 4 4 4.75 1.8 4.75-13.9 0-15.1 0-15.1-2.25-14.75-2.15.3-2.25.85-2.75 11.15-.55 11.75-2.05 14.65-7.5 14.65-4 0-4.95-2.55-5.5-14.4-.5-10.85-1.6-13.65-4.3-10.95m32.55 1.35c-7.2 4.35-4.1 11.7 6.45 15.45 3.75 1.35 5.9 2.7 6.1 3.85.95 4.95-7.15 6.6-10.6 2.2-2.3-2.85-4.95-3.25-5.9-.85-1.25 3.2 4.95 7.35 11 7.35 15 0 16.15-12.85 1.55-17.5-6.7-2.1-8.2-4-5.35-6.9 2.3-2.25 4.9-2 8.35.9 3.25 2.75 6.15 2.45 6.15-.6 0-2.7-5.7-5.9-10.5-5.9-2.25 0-5.45.9-7.25 2m46.4 1.25c-7.15 6.75-6.8 20.25.65 24.8 6.8 4.15 20.45.9 18.4-4.4-.85-2.2-3.3-2.1-5.95.35-4.05 3.8-10.95 1.2-11.9-4.5-.35-1.85.3-2 9.5-2.3l9.9-.3-.5-5.15c-1.05-10.85-12.45-15.65-20.1-8.5m12.5 3.4c4.05 3.65 2.45 5.35-5.1 5.35-6.25 0-6.9-.2-6.35-1.75 1.8-5.15 7.75-7 11.45-3.6m99.25-5.7c-9.15 3.75-10.85 20.6-2.7 27.05 4.1 3.2 12.4 2.8 16.45-.85 4.95-4.45 1.45-7.3-3.9-3.15-3.45 2.75-6.85 2.5-9.8-.65-4.85-5.25-3.65-6.35 7-6.35 10.55 0 11-.3 10-6.25-1.4-8.3-9.35-12.9-17.05-9.8m9.85 6.25c3.35 3.85 2.35 4.8-5.25 4.8-7.9 0-8.45-.7-4-5.15 3.35-3.35 6.15-3.25 9.25.35m44.2-5.95c-1.65 4.35.05 28.25 2.05 28.25 2.9 0 3.15-28.75.25-29.3-.95-.2-2 .25-2.3 1.05m16.45.25c-7.5 4.05-8.6 18.95-1.9 25.65 5.2 5.2 15.6 3.6 18.95-2.9 2.4-4.8-.85-5.6-4.95-1.25-5.75 6.15-12.1 2.85-12.8-6.65-.7-10.05 6.95-15.65 12.3-9 3.85 4.85 8.45 2.85 4.95-2.15-3.4-4.85-11.25-6.6-16.55-3.7m42.15-.2c-11.8 5.95-8.4 28 4.45 28.8 5.5.35 7.2-.1 9.85-2.55 4.6-4.25 1.95-7.5-2.95-3.65-3.9 3.05-7.7 2.7-10.8-1-4.4-5.2-3.75-5.8 7.15-6.1l9.75-.3-.2-5c-.3-8.95-9.3-14.25-17.25-10.2m10.2 5.5c4.05 3.45 2.3 5.2-5.2 5.2-6.25 0-6.9-.2-6.35-1.75 2.05-5.8 7.05-7.3 11.55-3.45m62.75-3c-13.2 13.15 3.35 35.7 17.15 23.35 4.95-4.45 1.45-7.3-3.9-3.15-3.6 2.85-6.65 2.5-9.65-1.1-4.55-5.35-3.85-5.9 7.55-5.9h10.1l-.5-5.2c-1.1-11.35-12.9-15.9-20.75-8m13.25 3c4.05 3.45 2.3 5.2-5.25 5.2-7.5 0-7.9-.3-5.4-3.85 2.9-4.1 6.85-4.6 10.65-1.35m22.25-5.85c-1.1.45-3.45.55-5.25.3l-3.25-.5v14.7c0 14.65 0 14.7 2.25 14.35 2.1-.3 2.3-.9 2.8-10.3.6-11.5 1.1-13 4.8-14.3 6.55-2.3 8 .3 8.4 14.8.25 8.75.4 9.5 2.25 9.5 3.5 0 3.55-23.55.1-27-2.6-2.6-7.85-3.25-12.1-1.55m45.3.6c-3.05 1.65-5.2 4.95-4.3 6.45 1 1.6 3.55 1.15 5.35-.95 2.6-3.1 6.6-3.6 9.05-1.15 3.95 3.95 2.85 5.75-4.05 6.4-8.3.75-11.25 3-11.65 8.85-.5 7.55 9.4 12.75 15.2 7.95 1.15-.95 1.85-.95 3.4 0 4.55 2.85 5.4.85 5.05-11.7l-.35-11.55-3.25-2.95c-3.75-3.3-9.8-3.9-14.45-1.35m12 17.2c.4 2.85-3.9 7.25-7.1 7.25-3.15 0-6.05-3.25-5.25-5.85 1.35-4.3 11.8-5.5 12.35-1.4"/></g></svg>