<?xml version="1.0" encoding="UTF-8"?> <svg xmlns="http://www.w3.org/2000/svg" width="456" height="144" viewBox="0 0 456 144" fill="none"> <path d="M108.135 142.9C108.335 142.9 108.635 142.8 108.835 142.8H108.935C113.335 142 117.635 140.4 121.635 138.3L121.835 138.2C122.035 138.1 122.335 137.9 122.535 137.8L123.135 137.5L123.435 137.3C137.535 129 146.035 113.8 145.835 97.3999H145.735C145.735 97.1999 145.735 96.9999 145.735 96.8999C145.735 88.6999 139.135 82.1001 130.935 82.1001C122.735 82.1001 116.135 88.6999 116.135 96.8999C116.135 97.0999 116.135 97.3 116.135 97.5C116.235 99.3 115.935 101.1 115.435 102.8C114.735 105.1 113.535 107.2 111.835 108.9C111.735 109.1 111.535 109.2 111.435 109.3C111.335 109.4 111.235 109.5 111.135 109.5C111.035 109.6 110.935 109.7 110.835 109.8C110.735 109.9 110.535 110 110.435 110.2C110.335 110.3 110.235 110.4 110.135 110.5C110.035 110.6 109.935 110.7 109.735 110.8C109.635 110.9 109.535 111 109.435 111C109.235 111.1 109.035 111.3 108.835 111.4C108.635 111.5 108.535 111.6 108.335 111.7C108.235 111.8 108.135 111.8 108.035 111.9C107.835 112 107.735 112.1 107.535 112.2L107.235 112.3C107.035 112.4 106.835 112.5 106.735 112.5L106.435 112.6C106.235 112.7 106.035 112.8 105.835 112.8L105.535 112.9C105.435 112.9 105.335 113 105.135 113C105.035 113 104.835 113.1 104.735 113.1H104.535C101.735 113.9 98.7354 113.9 95.8354 113.1L95.6354 113H95.5354C93.1354 112.2 91.0354 110.9 89.2354 109.2L89.1354 109.1C89.0354 109 88.9354 108.9 88.8354 108.8C88.7354 108.7 88.6354 108.6 88.5354 108.5L88.3354 108.3C88.2354 108.2 88.1354 108 87.9354 107.9L87.8354 107.8C87.7354 107.6 87.5354 107.5 87.4354 107.3L87.3354 107.1C87.2354 106.9 87.1354 106.8 87.0354 106.6L86.9354 106.4C86.8354 106.3 86.7354 106.1 86.6354 106C86.5354 105.9 86.5354 105.8 86.4354 105.7C86.3354 105.6 86.3354 105.4 86.2354 105.3C86.1354 105.2 86.1354 105.1 86.0354 104.9C85.9354 104.8 85.9354 104.7 85.8354 104.6C85.7354 104.5 85.7354 104.3 85.6354 104.2C85.6354 104.1 85.5354 104 85.5354 103.9C85.4354 103.7 85.4354 103.6 85.3354 103.4C85.3354 103.3 85.2354 103.2 85.2354 103.1C85.1354 103 85.1354 102.8 85.1354 102.7C85.1354 102.6 85.0354 102.5 85.0354 102.3C85.0354 102.2 85.0354 102.1 84.9354 102C84.2354 99.4 84.2354 96.6 84.8354 94C84.8354 94 84.8354 93.9999 84.8354 93.8999C84.8354 93.7999 84.9354 93.7001 84.9354 93.6001C85.7354 90.8001 87.2354 88.3003 89.3354 86.3003L89.5354 86.1001C89.6354 86.0001 89.7354 85.9003 89.8354 85.8003C89.9354 85.7003 90.0354 85.6 90.1354 85.5L90.3354 85.3003C90.5354 85.2003 90.6354 84.9999 90.8354 84.8999L91.0354 84.7002C91.2354 84.6002 91.3354 84.4999 91.5354 84.3999L91.8354 84.2002C92.0354 84.1002 92.1354 83.9999 92.3354 83.8999C92.4354 83.7999 92.5354 83.8002 92.6354 83.7002C92.8354 83.6002 92.9354 83.5 93.1354 83.5C93.3354 83.4 93.6354 83.3002 93.8354 83.2002C93.9354 83.2002 94.0354 83.1001 94.1354 83.1001C94.3354 83.0001 94.4354 82.9999 94.6354 82.8999C94.8354 82.7999 94.8354 82.8003 95.0354 82.8003L95.3354 82.7002C95.5354 82.6002 95.7354 82.6 95.9354 82.5H96.0354C96.3354 82.4 96.6354 82.4003 96.8354 82.3003C98.2354 82.0003 99.7354 81.9 101.235 82H101.335C101.635 82 101.835 82.0001 102.135 82.1001H102.435L102.835 82.2002C103.435 82.3002 103.935 82.4001 104.535 82.6001C105.135 82.7001 105.835 82.9001 106.435 83.1001C106.635 83.2001 106.735 83.2999 106.935 83.3999C107.335 83.5999 107.735 83.6999 108.135 83.8999C108.235 83.8999 108.235 84 108.335 84H108.435C116.135 86.7 124.635 82.5999 127.335 74.8999C129.835 67.6999 126.435 59.7 119.435 56.5C119.135 56.3 118.735 56.2001 118.435 56.1001C107.635 51.4001 95.3354 51.0002 84.2354 55.2002V14.8003C84.2354 6.60029 77.6354 0 69.4354 0C61.2354 0 54.6354 6.60029 54.6354 14.8003V95.6001C54.6354 96.1001 54.6354 96.5 54.7354 97C54.7354 99.6 54.8354 102.2 55.2354 104.8C55.2354 104.9 55.2354 105 55.3354 105.1C55.4354 105.2 55.3354 105.3 55.4354 105.4C56.2354 110.2 57.8354 114.9 60.1354 119.2L60.2354 119.4C60.3354 119.6 60.4354 119.8 60.5354 120C60.6354 120.2 60.7354 120.4 60.8354 120.6L60.9354 120.8C63.4354 125.1 66.6354 128.9 70.3354 132.1L70.5354 132.3L70.9354 132.6C75.5354 136.5 80.9354 139.5 86.7354 141.3H86.8354L87.4354 141.5L87.9354 141.7H88.1354C94.4354 143.4 100.935 143.8 107.435 142.8H107.635L108.135 142.9Z" fill="url(#paint0_linear_99_88)"></path> <path opacity="0.8" d="M53.0354 42.3003L45.8354 27.3003C42.3354 19.9003 34.0354 16.6002 27.4354 19.7002C20.7354 22.9002 18.2354 31.4003 21.7354 38.8003L53.0354 104.3V42.3003Z" fill="#D90653"></path> <path opacity="0.6" d="M34.0354 68.6L19.2354 56.7001C14.5354 52.4001 7.33542 52.6998 3.03542 57.3998C-1.26458 62.0998 -0.964597 69.3 3.7354 73.6C4.1354 73.9 4.43541 74.1999 4.93541 74.4999L56.5354 116.2L34.0354 68.6Z" fill="#D90653"></path> <path d="M236.008 107.505C232.008 103.305 229.808 97.7053 229.908 91.9053C229.908 86.1053 232.108 80.6053 236.008 76.4053C239.908 72.1053 245.408 69.7051 251.208 69.7051C256.908 69.7051 262.308 72.2053 266.008 76.4053C270.008 80.6053 272.208 86.1053 272.208 91.9053C272.308 97.7053 270.108 103.405 266.008 107.505C262.308 111.805 256.908 114.205 251.208 114.205C245.408 114.205 239.908 111.705 236.008 107.505ZM239.508 91.9053C239.408 95.3053 240.508 98.6052 242.708 101.305C245.008 103.505 248.108 104.605 251.208 104.605C254.208 104.605 257.208 103.405 259.408 101.305C261.708 98.7052 262.908 95.4053 262.908 91.9053C263.008 88.5053 261.708 85.2051 259.408 82.7051C257.208 80.6051 254.308 79.4052 251.208 79.3052C248.008 79.3052 245.008 80.5051 242.708 82.7051C240.608 85.2051 239.508 88.5053 239.508 91.9053Z" fill="black"></path> <path d="M316.708 88.105V109.305C316.708 111.905 314.708 114.005 312.108 114.005C309.508 114.005 307.508 111.905 307.408 109.305V88.105C307.308 83.105 303.208 79.105 298.208 79.105C293.308 79.105 289.308 83.1053 289.308 87.9053V88.0049V109.205C289.308 109.505 289.308 109.805 289.108 110.105C288.608 112.305 286.708 113.905 284.408 113.905C281.808 113.905 279.708 111.805 279.708 109.305C279.708 109.305 279.708 109.305 279.708 109.205V74.3052C279.708 71.7052 281.808 69.605 284.308 69.605C284.308 69.605 284.308 69.605 284.408 69.605C286.308 69.605 287.908 70.7052 288.708 72.3052C291.508 70.5052 294.808 69.605 298.108 69.605C308.408 69.605 316.608 77.905 316.708 88.105Z" fill="black"></path> <path d="M359.308 77.105L339.308 104.605H355.608C358.208 104.605 360.308 106.705 360.308 109.305C360.308 111.905 358.208 113.905 355.608 114.005H330.008C329.708 114.005 329.408 114.005 329.108 113.905H328.808C328.608 113.805 328.508 113.705 328.308 113.705C328.108 113.605 328.008 113.605 327.908 113.505C327.808 113.505 327.608 113.305 327.508 113.305C327.408 113.105 327.308 113.105 327.308 113.005C327.208 113.005 327.208 113.005 327.208 112.905C327.108 112.905 327.008 112.805 326.908 112.705C326.808 112.605 326.708 112.505 326.508 112.405C326.408 112.205 326.308 112.105 326.108 112.005C326.008 111.905 325.908 111.705 325.808 111.605C325.608 111.505 325.608 111.405 325.608 111.205C325.408 111.105 325.308 110.905 325.308 110.805C325.208 110.805 325.208 110.605 325.108 110.405C325.108 110.305 325.008 110.105 325.008 110.005V109.405C324.908 109.305 324.908 109.205 324.908 109.105V109.005C324.908 108.805 325.008 108.605 325.008 108.405V108.005C325.108 107.905 325.108 107.705 325.208 107.605C325.208 107.505 325.308 107.305 325.308 107.205C325.408 107.205 325.608 106.905 325.608 106.905C325.608 106.705 325.708 106.605 325.908 106.505H326.008L345.908 78.9053H329.708C327.108 78.9053 325.008 76.8051 325.008 74.2051C325.008 71.6051 327.108 69.6049 329.708 69.5049H355.308C355.508 69.5049 355.708 69.605 355.808 69.605H356.208C356.408 69.705 356.608 69.7052 356.608 69.8052C356.708 69.8052 356.908 69.9053 357.008 69.9053C357.108 70.0053 357.208 70.2051 357.308 70.2051C357.508 70.2051 357.708 70.4049 357.808 70.5049C357.808 70.5049 357.908 70.505 357.908 70.605C358.008 70.605 358.108 70.7052 358.108 70.8052C358.308 70.9052 358.408 71.1051 358.508 71.2051C358.608 71.2051 358.708 71.4049 358.808 71.5049C358.908 71.6049 359.008 71.8053 359.108 71.9053C359.208 72.0053 359.208 72.105 359.408 72.105C359.408 72.405 359.608 72.505 359.608 72.605C359.708 72.705 359.708 72.9049 359.708 73.0049C359.808 73.2049 359.808 73.4053 359.908 73.4053V73.9053C359.908 74.0053 360.008 74.2052 360.008 74.3052V74.4053C359.908 74.5053 359.908 74.7052 359.908 74.8052C359.908 75.1052 359.808 75.5052 359.708 75.8052C359.708 76.0052 359.608 76.2051 359.408 76.2051V76.5049C359.608 76.7049 359.508 76.905 359.308 77.105Z" fill="black"></path> <path d="M426.808 109.105C426.808 111.805 424.608 114.005 421.908 114.005C421.908 114.005 421.908 114.005 421.808 114.005C419.608 113.905 417.708 112.505 417.108 110.405C417.008 110.005 416.908 109.605 416.908 109.205V56.9051C417.008 54.2051 419.208 52.0048 421.908 52.1048C424.508 52.2048 426.708 54.3051 426.708 56.9051V72.305C429.608 70.705 432.908 69.8049 436.208 69.7049C446.908 69.7049 455.508 78.4048 455.508 89.1048V109.105C455.508 111.805 453.308 114.005 450.608 114.005C447.908 114.005 445.708 111.805 445.708 109.105V89.1048C445.808 83.8048 441.608 79.5051 436.308 79.4051C431.008 79.3051 426.708 83.505 426.608 88.805C426.608 88.905 426.608 89.0048 426.608 89.1048L426.808 109.105Z" fill="black"></path> <path d="M201.508 69.6051C197.308 69.6051 193.308 70.9052 189.808 73.2052V56.7052C189.608 54.0052 187.208 52.0052 184.508 52.2052C182.108 52.4052 180.208 54.3052 180.008 56.7052V74.005C180.008 74.205 180.008 74.405 180.008 74.505V91.8053H180.108C180.608 103.605 190.508 112.805 202.408 112.305C214.208 111.805 223.408 101.905 222.908 90.005C222.408 78.605 213.008 69.6051 201.508 69.6051ZM201.508 104.305C194.508 104.805 188.508 99.505 188.108 92.505C187.608 85.505 192.908 79.5051 199.908 79.1051C206.908 78.6051 212.908 83.9054 213.308 90.9054C213.308 91.2054 213.308 91.4052 213.308 91.7052C213.508 98.5052 208.208 104.105 201.508 104.305Z" fill="black"></path> <path d="M408.708 91.8052C408.108 80.1052 398.108 71.1051 386.508 71.7051C374.808 72.3051 365.808 82.3053 366.408 93.9053C367.008 105.205 376.308 114.005 387.608 114.005C391.808 114.005 395.808 112.705 399.308 110.305C400.008 112.305 401.908 113.605 404.008 113.505C406.608 113.605 408.808 111.605 408.908 109.005L408.708 91.8052ZM388.508 105.505C381.508 106.005 375.508 100.805 375.008 93.9053C374.508 86.9053 379.708 80.9053 386.608 80.4053C393.608 79.9053 399.608 85.1049 400.108 92.0049C400.108 92.3049 400.108 92.6053 400.108 92.9053C400.508 99.6053 395.208 105.205 388.508 105.505Z" fill="black"></path> <defs> <linearGradient id="paint0_linear_99_88" x1="61.3982" y1="128.248" x2="148.126" y2="67.5894" gradientUnits="userSpaceOnUse"> <stop stop-color="#881451"></stop> <stop offset="0.013" stop-color="#891350"></stop> <stop offset="0.265" stop-color="#A6144F"></stop> <stop offset="0.516" stop-color="#BB144D"></stop> <stop offset="0.763" stop-color="#C7114C"></stop> <stop offset="1" stop-color="#CC0F4C"></stop> </linearGradient> </defs> </svg> 