<svg xmlns="http://www.w3.org/2000/svg" xmlns:xlink="http://www.w3.org/1999/xlink" width="1080" zoomAndPan="magnify" viewBox="0 0 810 809.999993" height="1080" preserveAspectRatio="xMidYMid meet" version="1.0"><defs><clipPath id="be39fe4453"><path d="M 303 21.582031 L 752 21.582031 L 752 726 L 303 726 Z M 303 21.582031 " clip-rule="nonzero"/></clipPath><clipPath id="8d42043484"><path d="M 565.894531 723.429688 C 566.875 723.429688 568.351562 722.9375 569.332031 722.9375 L 569.824219 722.9375 C 591.441406 719.007812 612.566406 711.148438 632.21875 700.835938 L 633.199219 700.34375 C 634.183594 699.851562 635.65625 698.871094 636.636719 698.378906 L 639.585938 696.90625 L 641.058594 695.925781 C 710.332031 655.160156 752.089844 580.503906 751.105469 499.957031 L 750.617188 499.957031 C 750.617188 498.972656 750.617188 497.992188 750.617188 497.5 C 750.617188 457.226562 718.191406 424.8125 677.90625 424.8125 C 637.621094 424.8125 605.195312 457.226562 605.195312 497.5 C 605.195312 498.484375 605.195312 499.464844 605.195312 500.449219 C 605.6875 509.289062 604.214844 518.128906 601.757812 526.480469 C 598.320312 537.773438 592.421875 548.089844 584.070312 556.4375 C 583.582031 557.421875 582.597656 557.910156 582.105469 558.402344 C 581.613281 558.894531 581.125 559.386719 580.632812 559.386719 C 580.140625 559.875 579.648438 560.367188 579.160156 560.859375 C 578.667969 561.351562 577.683594 561.839844 577.195312 562.824219 C 576.703125 563.316406 576.210938 563.804688 575.71875 564.296875 C 575.230469 564.789062 574.738281 565.277344 573.753906 565.769531 C 573.261719 566.261719 572.773438 566.753906 572.28125 566.753906 C 571.296875 567.242188 570.316406 568.226562 569.332031 568.71875 C 568.351562 569.207031 567.859375 569.699219 566.875 570.191406 C 566.386719 570.683594 565.894531 570.683594 565.402344 571.171875 C 564.421875 571.664062 563.929688 572.15625 562.945312 572.644531 L 561.472656 573.136719 C 560.488281 573.628906 559.507812 574.121094 559.015625 574.121094 L 557.542969 574.609375 C 556.558594 575.101562 555.578125 575.59375 554.59375 575.59375 L 553.121094 576.085938 C 552.628906 576.085938 552.136719 576.574219 551.15625 576.574219 C 550.664062 576.574219 549.683594 577.066406 549.191406 577.066406 L 548.207031 577.066406 C 534.453125 580.996094 519.714844 580.996094 505.46875 577.066406 L 504.484375 576.574219 L 503.996094 576.574219 C 492.203125 572.644531 481.886719 566.261719 473.042969 557.910156 L 472.554688 557.421875 C 472.0625 556.929688 471.570312 556.4375 471.078125 555.949219 C 470.585938 555.457031 470.097656 554.964844 469.605469 554.472656 L 468.621094 553.492188 C 468.132812 553 467.640625 552.019531 466.65625 551.527344 L 466.167969 551.035156 C 465.675781 550.054688 464.691406 549.5625 464.203125 548.582031 L 463.710938 547.597656 C 463.21875 546.617188 462.726562 546.125 462.234375 545.140625 L 461.746094 544.160156 C 461.253906 543.667969 460.761719 542.6875 460.269531 542.195312 C 459.78125 541.703125 459.78125 541.214844 459.289062 540.722656 C 458.796875 540.230469 458.796875 539.25 458.304688 538.757812 C 457.816406 538.265625 457.816406 537.773438 457.324219 536.792969 C 456.832031 536.300781 456.832031 535.808594 456.339844 535.320312 C 455.847656 534.828125 455.847656 533.847656 455.359375 533.355469 C 455.359375 532.863281 454.867188 532.371094 454.867188 531.882812 C 454.375 530.898438 454.375 530.40625 453.882812 529.425781 C 453.882812 528.933594 453.394531 528.441406 453.394531 527.953125 C 452.902344 527.460938 452.902344 526.480469 452.902344 525.988281 C 452.902344 525.496094 452.410156 525.003906 452.410156 524.023438 C 452.410156 523.53125 452.410156 523.039062 451.917969 522.550781 C 448.480469 509.78125 448.480469 496.027344 451.429688 483.257812 C 451.429688 483.257812 451.429688 483.257812 451.429688 482.765625 C 451.429688 482.273438 451.917969 481.785156 451.917969 481.292969 C 455.847656 467.542969 463.21875 455.265625 473.535156 445.441406 L 474.519531 444.457031 C 475.007812 443.964844 475.5 443.476562 475.992188 442.984375 C 476.484375 442.496094 476.972656 442 477.464844 441.511719 L 478.449219 440.53125 C 479.429688 440.039062 479.921875 439.054688 480.90625 438.5625 L 481.886719 437.582031 C 482.871094 437.089844 483.359375 436.597656 484.34375 436.105469 L 485.816406 435.125 C 486.800781 434.636719 487.292969 434.144531 488.273438 433.652344 C 488.765625 433.160156 489.257812 433.160156 489.746094 432.671875 C 490.730469 432.179688 491.222656 431.6875 492.203125 431.6875 C 493.1875 431.195312 494.660156 430.707031 495.644531 430.214844 C 496.132812 430.214844 496.625 429.722656 497.117188 429.722656 C 498.097656 429.230469 498.589844 429.230469 499.574219 428.738281 C 500.554688 428.25 500.554688 428.25 501.539062 428.25 L 503.011719 427.757812 C 503.996094 427.269531 504.976562 427.265625 505.960938 426.777344 L 506.453125 426.777344 C 507.925781 426.285156 509.398438 426.285156 510.382812 425.796875 C 517.257812 424.320312 524.628906 423.828125 531.996094 424.320312 L 532.488281 424.320312 C 533.960938 424.320312 534.945312 424.320312 536.417969 424.8125 L 537.890625 424.8125 L 539.855469 425.304688 C 542.804688 425.792969 545.261719 426.285156 548.207031 427.269531 C 551.15625 427.757812 554.59375 428.742188 557.542969 429.722656 C 558.523438 430.214844 559.015625 430.703125 560 431.195312 C 561.964844 432.179688 563.929688 432.667969 565.894531 433.652344 C 566.386719 433.652344 566.386719 434.144531 566.875 434.144531 L 567.367188 434.144531 C 605.195312 447.402344 646.957031 427.265625 660.21875 389.449219 C 672.503906 354.085938 655.796875 314.792969 621.410156 299.078125 C 619.933594 298.097656 617.96875 297.605469 616.496094 297.113281 C 563.4375 274.03125 503.011719 272.066406 448.480469 292.695312 L 448.480469 94.273438 C 448.480469 53.996094 416.054688 21.582031 375.769531 21.582031 C 335.484375 21.582031 303.0625 53.996094 303.0625 94.273438 L 303.0625 491.117188 C 303.0625 493.574219 303.0625 495.535156 303.550781 497.992188 C 303.550781 510.761719 304.042969 523.53125 306.007812 536.300781 C 306.007812 536.792969 306.007812 537.285156 306.5 537.773438 C 306.992188 538.265625 306.5 538.757812 306.992188 539.25 C 310.921875 562.824219 318.78125 585.90625 330.082031 607.027344 L 330.574219 608.007812 C 331.0625 608.992188 331.554688 609.972656 332.046875 610.957031 C 332.539062 611.9375 333.03125 612.921875 333.519531 613.902344 L 334.011719 614.886719 C 346.292969 636.003906 362.015625 654.667969 380.191406 670.382812 L 381.175781 671.367188 L 383.140625 672.839844 C 405.738281 691.996094 432.269531 706.730469 460.761719 715.570312 L 461.253906 715.570312 L 464.203125 716.550781 L 466.65625 717.535156 L 467.640625 717.535156 C 498.589844 725.882812 530.523438 727.847656 562.457031 722.9375 L 563.4375 722.9375 Z M 565.894531 723.429688 " clip-rule="nonzero"/></clipPath><linearGradient x1="49.552635" gradientTransform="matrix(4.912803, 0, 0, 4.911458, 34.648284, 21.58071)" y1="136.532844" x2="178.466036" gradientUnits="userSpaceOnUse" y2="46.368679" id="5215925844"><stop stop-opacity="1" stop-color="rgb(53.329468%, 7.839966%, 31.759644%)" offset="0"/><stop stop-opacity="1" stop-color="rgb(53.329468%, 7.839966%, 31.759644%)" offset="0.0625"/><stop stop-opacity="1" stop-color="rgb(53.372192%, 7.797241%, 31.716919%)" offset="0.09375"/><stop stop-opacity="1" stop-color="rgb(53.6026%, 7.603455%, 31.521606%)" offset="0.101562"/><stop stop-opacity="1" stop-color="rgb(54.052734%, 7.460022%, 31.358337%)" offset="0.105469"/><stop stop-opacity="1" stop-color="rgb(54.315186%, 7.469177%, 31.349182%)" offset="0.109375"/><stop stop-opacity="1" stop-color="rgb(54.577637%, 7.478333%, 31.340027%)" offset="0.113281"/><stop stop-opacity="1" stop-color="rgb(54.840088%, 7.487488%, 31.330872%)" offset="0.117187"/><stop stop-opacity="1" stop-color="rgb(55.101013%, 7.496643%, 31.321716%)" offset="0.121094"/><stop stop-opacity="1" stop-color="rgb(55.363464%, 7.505798%, 31.312561%)" offset="0.125"/><stop stop-opacity="1" stop-color="rgb(55.62439%, 7.513428%, 31.303406%)" offset="0.128906"/><stop stop-opacity="1" stop-color="rgb(55.886841%, 7.522583%, 31.295776%)" offset="0.132812"/><stop stop-opacity="1" stop-color="rgb(56.149292%, 7.531738%, 31.286621%)" offset="0.136719"/><stop stop-opacity="1" stop-color="rgb(56.411743%, 7.540894%, 31.277466%)" offset="0.140625"/><stop stop-opacity="1" stop-color="rgb(56.672668%, 7.550049%, 31.268311%)" offset="0.144531"/><stop stop-opacity="1" stop-color="rgb(56.93512%, 7.559204%, 31.259155%)" offset="0.148437"/><stop stop-opacity="1" stop-color="rgb(57.197571%, 7.568359%, 31.25%)" offset="0.152344"/><stop stop-opacity="1" stop-color="rgb(57.460022%, 7.577515%, 31.240845%)" offset="0.15625"/><stop stop-opacity="1" stop-color="rgb(57.720947%, 7.58667%, 31.231689%)" offset="0.160156"/><stop stop-opacity="1" stop-color="rgb(57.983398%, 7.595825%, 31.22406%)" offset="0.164062"/><stop stop-opacity="1" stop-color="rgb(58.244324%, 7.603455%, 31.214905%)" offset="0.167969"/><stop stop-opacity="1" stop-color="rgb(58.506775%, 7.61261%, 31.20575%)" offset="0.171875"/><stop stop-opacity="1" stop-color="rgb(58.769226%, 7.621765%, 31.196594%)" offset="0.175781"/><stop stop-opacity="1" stop-color="rgb(59.031677%, 7.63092%, 31.187439%)" offset="0.179688"/><stop stop-opacity="1" stop-color="rgb(59.292603%, 7.640076%, 31.178284%)" offset="0.183594"/><stop stop-opacity="1" stop-color="rgb(59.555054%, 7.649231%, 31.169128%)" offset="0.1875"/><stop stop-opacity="1" stop-color="rgb(59.815979%, 7.658386%, 31.159973%)" offset="0.191406"/><stop stop-opacity="1" stop-color="rgb(60.07843%, 7.667542%, 31.150818%)" offset="0.195312"/><stop stop-opacity="1" stop-color="rgb(60.340881%, 7.675171%, 31.141663%)" offset="0.199219"/><stop stop-opacity="1" stop-color="rgb(60.603333%, 7.684326%, 31.134033%)" offset="0.203125"/><stop stop-opacity="1" stop-color="rgb(60.864258%, 7.693481%, 31.124878%)" offset="0.207031"/><stop stop-opacity="1" stop-color="rgb(61.126709%, 7.702637%, 31.115723%)" offset="0.210938"/><stop stop-opacity="1" stop-color="rgb(61.38916%, 7.711792%, 31.106567%)" offset="0.214844"/><stop stop-opacity="1" stop-color="rgb(61.651611%, 7.720947%, 31.097412%)" offset="0.21875"/><stop stop-opacity="1" stop-color="rgb(61.912537%, 7.730103%, 31.088257%)" offset="0.222656"/><stop stop-opacity="1" stop-color="rgb(62.174988%, 7.739258%, 31.079102%)" offset="0.226562"/><stop stop-opacity="1" stop-color="rgb(62.435913%, 7.748413%, 31.069946%)" offset="0.230469"/><stop stop-opacity="1" stop-color="rgb(62.698364%, 7.757568%, 31.062317%)" offset="0.234375"/><stop stop-opacity="1" stop-color="rgb(62.960815%, 7.765198%, 31.053162%)" offset="0.238281"/><stop stop-opacity="1" stop-color="rgb(63.223267%, 7.774353%, 31.044006%)" offset="0.242188"/><stop stop-opacity="1" stop-color="rgb(63.484192%, 7.783508%, 31.034851%)" offset="0.246094"/><stop stop-opacity="1" stop-color="rgb(63.746643%, 7.792664%, 31.025696%)" offset="0.25"/><stop stop-opacity="1" stop-color="rgb(64.007568%, 7.801819%, 31.016541%)" offset="0.253906"/><stop stop-opacity="1" stop-color="rgb(64.27002%, 7.810974%, 31.007385%)" offset="0.257812"/><stop stop-opacity="1" stop-color="rgb(64.532471%, 7.820129%, 30.99823%)" offset="0.261719"/><stop stop-opacity="1" stop-color="rgb(64.794922%, 7.829285%, 30.989075%)" offset="0.265625"/><stop stop-opacity="1" stop-color="rgb(65.026855%, 7.833862%, 30.976868%)" offset="0.269531"/><stop stop-opacity="1" stop-color="rgb(65.258789%, 7.839966%, 30.964661%)" offset="0.273437"/><stop stop-opacity="1" stop-color="rgb(65.447998%, 7.839966%, 30.94635%)" offset="0.28125"/><stop stop-opacity="1" stop-color="rgb(65.829468%, 7.839966%, 30.909729%)" offset="0.289062"/><stop stop-opacity="1" stop-color="rgb(66.209412%, 7.839966%, 30.873108%)" offset="0.296875"/><stop stop-opacity="1" stop-color="rgb(66.590881%, 7.839966%, 30.838013%)" offset="0.304687"/><stop stop-opacity="1" stop-color="rgb(66.972351%, 7.839966%, 30.801392%)" offset="0.3125"/><stop stop-opacity="1" stop-color="rgb(67.352295%, 7.839966%, 30.764771%)" offset="0.320312"/><stop stop-opacity="1" stop-color="rgb(67.733765%, 7.839966%, 30.729675%)" offset="0.328125"/><stop stop-opacity="1" stop-color="rgb(68.113708%, 7.839966%, 30.693054%)" offset="0.335938"/><stop stop-opacity="1" stop-color="rgb(68.495178%, 7.839966%, 30.656433%)" offset="0.34375"/><stop stop-opacity="1" stop-color="rgb(68.875122%, 7.839966%, 30.621338%)" offset="0.351562"/><stop stop-opacity="1" stop-color="rgb(69.256592%, 7.839966%, 30.584717%)" offset="0.359375"/><stop stop-opacity="1" stop-color="rgb(69.636536%, 7.839966%, 30.549622%)" offset="0.367187"/><stop stop-opacity="1" stop-color="rgb(70.018005%, 7.839966%, 30.513%)" offset="0.375"/><stop stop-opacity="1" stop-color="rgb(70.397949%, 7.839966%, 30.476379%)" offset="0.382812"/><stop stop-opacity="1" stop-color="rgb(70.779419%, 7.839966%, 30.441284%)" offset="0.390625"/><stop stop-opacity="1" stop-color="rgb(71.159363%, 7.839966%, 30.404663%)" offset="0.398437"/><stop stop-opacity="1" stop-color="rgb(71.540833%, 7.839966%, 30.368042%)" offset="0.40625"/><stop stop-opacity="1" stop-color="rgb(71.922302%, 7.839966%, 30.332947%)" offset="0.414062"/><stop stop-opacity="1" stop-color="rgb(72.302246%, 7.839966%, 30.296326%)" offset="0.421875"/><stop stop-opacity="1" stop-color="rgb(72.683716%, 7.839966%, 30.259705%)" offset="0.429687"/><stop stop-opacity="1" stop-color="rgb(73.06366%, 7.839966%, 30.224609%)" offset="0.4375"/><stop stop-opacity="1" stop-color="rgb(73.381042%, 7.817078%, 30.194092%)" offset="0.445313"/><stop stop-opacity="1" stop-color="rgb(73.617554%, 7.766724%, 30.174255%)" offset="0.453125"/><stop stop-opacity="1" stop-color="rgb(73.838806%, 7.711792%, 30.155945%)" offset="0.460937"/><stop stop-opacity="1" stop-color="rgb(74.060059%, 7.65686%, 30.136108%)" offset="0.46875"/><stop stop-opacity="1" stop-color="rgb(74.281311%, 7.601929%, 30.117798%)" offset="0.4761"/><stop stop-opacity="1" stop-color="rgb(74.3927%, 7.574463%, 30.108643%)" offset="0.476563"/><stop stop-opacity="1" stop-color="rgb(74.502563%, 7.546997%, 30.099487%)" offset="0.484375"/><stop stop-opacity="1" stop-color="rgb(74.723816%, 7.492065%, 30.081177%)" offset="0.492187"/><stop stop-opacity="1" stop-color="rgb(74.946594%, 7.437134%, 30.06134%)" offset="0.5"/><stop stop-opacity="1" stop-color="rgb(75.167847%, 7.382202%, 30.04303%)" offset="0.507812"/><stop stop-opacity="1" stop-color="rgb(75.389099%, 7.327271%, 30.024719%)" offset="0.515625"/><stop stop-opacity="1" stop-color="rgb(75.610352%, 7.272339%, 30.004883%)" offset="0.523438"/><stop stop-opacity="1" stop-color="rgb(75.831604%, 7.217407%, 29.986572%)" offset="0.5239"/><stop stop-opacity="1" stop-color="rgb(75.942993%, 7.189941%, 29.977417%)" offset="0.53125"/><stop stop-opacity="1" stop-color="rgb(76.052856%, 7.162476%, 29.968262%)" offset="0.539062"/><stop stop-opacity="1" stop-color="rgb(76.274109%, 7.107544%, 29.948425%)" offset="0.546875"/><stop stop-opacity="1" stop-color="rgb(76.495361%, 7.052612%, 29.930115%)" offset="0.554688"/><stop stop-opacity="1" stop-color="rgb(76.71814%, 6.997681%, 29.911804%)" offset="0.5625"/><stop stop-opacity="1" stop-color="rgb(76.939392%, 6.942749%, 29.891968%)" offset="0.570312"/><stop stop-opacity="1" stop-color="rgb(77.160645%, 6.887817%, 29.873657%)" offset="0.578125"/><stop stop-opacity="1" stop-color="rgb(77.381897%, 6.832886%, 29.855347%)" offset="0.585938"/><stop stop-opacity="1" stop-color="rgb(77.603149%, 6.777954%, 29.83551%)" offset="0.59375"/><stop stop-opacity="1" stop-color="rgb(77.902222%, 6.698608%, 29.812622%)" offset="0.609375"/><stop stop-opacity="1" stop-color="rgb(78.186035%, 6.608582%, 29.798889%)" offset="0.625"/><stop stop-opacity="1" stop-color="rgb(78.474426%, 6.492615%, 29.798889%)" offset="0.65625"/><stop stop-opacity="1" stop-color="rgb(78.858948%, 6.338501%, 29.798889%)" offset="0.6875"/><stop stop-opacity="1" stop-color="rgb(79.243469%, 6.184387%, 29.798889%)" offset="0.71875"/><stop stop-opacity="1" stop-color="rgb(79.626465%, 6.028748%, 29.798889%)" offset="0.75"/><stop stop-opacity="1" stop-color="rgb(79.908752%, 5.915833%, 29.798889%)" offset="1"/></linearGradient><clipPath id="b7469a5064"><path d="M 34.640625 285 L 313 285 L 313 593 L 34.640625 593 Z M 34.640625 285 " clip-rule="nonzero"/></clipPath></defs><g clip-path="url(#be39fe4453)"><g clip-path="url(#8d42043484)"><path fill="url(#5215925844)" d="M 303.0625 21.582031 L 303.0625 727.847656 L 752.089844 727.847656 L 752.089844 21.582031 Z M 303.0625 21.582031 " fill-rule="nonzero"/></g></g><path fill="#d90653" d="M 295.199219 229.335938 L 259.828125 155.664062 C 242.632812 119.320312 201.859375 103.113281 169.433594 118.335938 C 136.515625 134.054688 124.234375 175.800781 141.429688 212.148438 L 295.199219 533.847656 Z M 295.199219 229.335938 " fill-opacity="0.8" fill-rule="nonzero"/><g clip-path="url(#b7469a5064)"><path fill="#d90653" d="M 201.859375 358.507812 L 129.148438 300.0625 C 106.058594 278.941406 70.6875 280.414062 49.5625 303.496094 C 28.4375 326.582031 29.910156 361.945312 53 383.0625 C 54.964844 384.539062 56.4375 386.011719 58.894531 387.484375 L 312.394531 592.292969 Z M 201.859375 358.507812 " fill-opacity="0.6" fill-rule="nonzero"/></g></svg>